<?xml version="1.0" encoding="utf-8"?><svg viewBox="0 0 50 51" xmlns="http://www.w3.org/2000/svg" xmlns:xlink="http://www.w3.org/1999/xlink"><style>:root>svg{display:none}:root>svg:target{display:block}</style><svg viewBox="0 0 20 22" id="arrow" xmlns="http://www.w3.org/2000/svg"><g clip-path="url(#aa)"><path d="M19.668 10.54c-.001-.038-.014-.075-.02-.113-.008-.04-.01-.08-.023-.117-.003-.008-.003-.014-.006-.02-.011-.028-.034-.05-.048-.077l-.02-.032c-.017-.026-.026-.056-.047-.08-.002-.004-.005-.004-.008-.007a.081.081 0 0 0-.014-.013l-.005-.01-6.543-6.562a.59.59 0 0 0-.87.03.69.69 0 0 0 .027.927l5.412 5.428H.615c-.34 0-.615.294-.615.656 0 .362.275.656.615.656h16.888l-5.412 5.428a.689.689 0 0 0-.027.928.597.597 0 0 0 .448.207.593.593 0 0 0 .421-.178l6.543-6.562c.003-.003.003-.006.006-.01l.014-.014.008-.006c.021-.025.03-.055.047-.082l.02-.03c.014-.026.037-.05.048-.078.003-.006.003-.013.006-.019.014-.037.017-.078.022-.118.007-.038.02-.074.021-.113l.002-.009-.002-.01Z"/></g><defs><clipPath id="aa"><path fill="#fff" transform="translate(0 .05)" d="M0 0h19.67v21H0z"/></clipPath></defs></svg><svg fill="none" viewBox="0 0 21 20" id="check" xmlns="http://www.w3.org/2000/svg"><path d="M15.98 2.5h-10A2.5 2.5 0 0 0 3.48 5v10a2.5 2.5 0 0 0 2.5 2.5h10a2.5 2.5 0 0 0 2.5-2.5V5a2.5 2.5 0 0 0-2.5-2.5Zm.834 12.5a.833.833 0 0 1-.834.833h-10A.833.833 0 0 1 5.147 15V5a.83.83 0 0 1 .833-.833h10a.83.83 0 0 1 .834.833v10Z" fill="#231F20"/><path d="m13.23 6.992-3.15 4.166L8.722 9.4a.832.832 0 0 0-1.171-.146.837.837 0 0 0-.146 1.17l2.025 2.593a.835.835 0 0 0 1.317-.01l3.808-5a.836.836 0 1 0-1.333-1.016h.008Z" fill="#231F20"/></svg><svg fill="none" viewBox="0 0 21 20" id="check2" xmlns="http://www.w3.org/2000/svg"><path d="M15.98 2.5h-10A2.5 2.5 0 0 0 3.48 5v10a2.5 2.5 0 0 0 2.5 2.5h10a2.5 2.5 0 0 0 2.5-2.5V5a2.5 2.5 0 0 0-2.5-2.5Zm.834 12.5a.833.833 0 0 1-.834.833h-10A.833.833 0 0 1 5.147 15V5a.83.83 0 0 1 .833-.833h10a.83.83 0 0 1 .834.833v10Z" fill="#231F20"/></svg><svg viewBox="0 0 16 16" id="copy" xmlns="http://www.w3.org/2000/svg"><g clip-path="url(#da)"><path d="M3.41 15.41h7.18c.507 0 .992-.198 1.351-.551.358-.355.559-.834.559-1.335v-.09h.09c.507 0 .992-.198 1.351-.552.358-.354.559-.834.559-1.335v-9.07a1.868 1.868 0 0 0-.559-1.336A1.923 1.923 0 0 0 12.59.59H5.41c-.507 0-.992.199-1.351.552A1.878 1.878 0 0 0 3.5 2.476v.09h-.09c-.507 0-.992.198-1.351.552A1.878 1.878 0 0 0 1.5 4.453v9.07c0 .502.201.98.559 1.336.359.353.844.552 1.351.552ZM2.5 4.454a.898.898 0 0 1 .268-.635.92.92 0 0 1 .642-.265h7.18a.92.92 0 0 1 .642.265c.17.168.267.396.268.635v9.07a.898.898 0 0 1-.268.635.92.92 0 0 1-.642.265H3.41a.92.92 0 0 1-.642-.265.898.898 0 0 1-.268-.634V4.453Z"/></g><defs><clipPath id="da"><path fill="#fff" transform="translate(0 .095)" d="M0 0h16v15.81H0z"/></clipPath></defs></svg><svg fill="none" viewBox="0 0 27 27" id="discord" xmlns="http://www.w3.org/2000/svg"><g clip-path="url(#ea)"><mask id="eb" style="mask-type:luminance" maskUnits="userSpaceOnUse" x="0" y="0" width="27" height="27"><path d="M27 0H0v27h27V0Z" fill="#fff"/></mask><g mask="url(#eb)"><path d="M22.857 4.916a22.255 22.255 0 0 0-5.496-1.704.086.086 0 0 0-.089.042c-.237.421-.5.973-.684 1.405-2.075-.31-4.14-.31-6.173 0a14.283 14.283 0 0 0-.694-1.405.087.087 0 0 0-.089-.042 22.19 22.19 0 0 0-5.495 1.704.073.073 0 0 0-.036.03C.6 10.177-.36 15.277.11 20.315a.092.092 0 0 0 .035.063 22.356 22.356 0 0 0 6.742 3.408.086.086 0 0 0 .095-.032c.52-.708.982-1.457 1.38-2.243a.085.085 0 0 0-.048-.12 14.888 14.888 0 0 1-2.106-1.003.087.087 0 0 1-.009-.144c.142-.105.283-.216.418-.327a.083.083 0 0 1 .088-.011c4.42 2.017 9.203 2.017 13.569 0a.083.083 0 0 1 .089.01c.135.112.276.224.42.33a.086.086 0 0 1-.008.143c-.673.393-1.372.726-2.108 1.003a.087.087 0 0 0-.046.12c.405.785.869 1.534 1.378 2.242.022.03.06.043.095.033a22.323 22.323 0 0 0 6.752-3.408.085.085 0 0 0 .035-.062c.563-5.824-.943-10.883-3.992-15.367a.057.057 0 0 0-.033-.033ZM9.023 17.247c-1.331 0-2.427-1.221-2.427-2.721s1.074-2.721 2.427-2.721c1.362 0 2.448 1.232 2.426 2.721 0 1.5-1.075 2.721-2.426 2.721Zm8.971 0c-1.33 0-2.426-1.221-2.426-2.721s1.074-2.721 2.426-2.721c1.363 0 2.448 1.232 2.427 2.721 0 1.5-1.064 2.721-2.427 2.721Z" fill="#000"/></g></g><defs><clipPath id="ea"><path fill="#fff" d="M0 0h27v27H0z"/></clipPath></defs></svg><svg fill="none" viewBox="0 0 24 24" id="nav" xmlns="http://www.w3.org/2000/svg"><path d="m18 17-5-5 5-5m-7 10-5-5 5-5" stroke="#000" stroke-width="2" stroke-linecap="round" stroke-linejoin="round"/></svg><svg fill="none" viewBox="0 0 50 51" id="plus" xmlns="http://www.w3.org/2000/svg"><g clip-path="url(#ga)"><g clip-path="url(#gb)"><path d="M38.018.5H11.982C5.361.5 0 5.861 0 12.482v26.036C0 45.139 5.361 50.5 11.982 50.5h26.036C44.639 50.5 50 45.139 50 38.518V12.482C50 5.861 44.639.5 38.018.5Zm.019 25c0 2.07-1.68 3.76-3.76 3.76H28.76v5.517a3.76 3.76 0 0 1-3.75 3.76c-2.07 0-3.76-1.68-3.76-3.76V29.26h-5.527a3.76 3.76 0 0 1-3.76-3.75c0-2.07 1.68-3.76 3.76-3.76h5.527v-5.527a3.76 3.76 0 0 1 3.75-3.76c2.07 0 3.76 1.68 3.76 3.76v5.527h5.517a3.753 3.753 0 0 1 3.76 3.75Z" fill="#0F2C23"/></g></g><defs><clipPath id="ga"><path fill="#fff" transform="translate(0 .5)" d="M0 0h50v50H0z"/></clipPath><clipPath id="gb"><path fill="#fff" transform="translate(0 .5)" d="M0 0h50v50H0z"/></clipPath></defs></svg><svg fill="none" viewBox="0 0 13 13" id="rights" xmlns="http://www.w3.org/2000/svg"><path d="M6.47 1.28a5 5 0 1 0 0 10 5 5 0 0 0 0-10Zm0 9.091a4.09 4.09 0 1 1 0-8.181 4.09 4.09 0 0 1 0 8.181Zm-1.364-4.09a1.364 1.364 0 0 0 2.332.963.454.454 0 1 1 .636.645 2.273 2.273 0 1 1 0-3.218.455.455 0 1 1-.636.646 1.364 1.364 0 0 0-2.332.963Z" fill="#F8FFE8"/></svg><svg fill="none" viewBox="0 0 23 27" id="social" xmlns="http://www.w3.org/2000/svg"><g clip-path="url(#ia)"><mask id="ib" style="mask-type:luminance" maskUnits="userSpaceOnUse" x="0" y="0" width="23" height="27"><path d="M23 0H0v26.449h23V0Z" fill="#fff"/></mask><g mask="url(#ib)"><path fill-rule="evenodd" clip-rule="evenodd" d="M8.544 1.51c-1.574.82-2.861 1.513-2.86 1.541 0 .073 3.776 1.986 3.91 1.981.061-.002.504-.205.983-.452l.873-.449.952.49.953.49 1.56-.701c2.35-1.057 2.594-1.172 2.556-1.211-.051-.052-.894-.505-3.181-1.709A214.114 214.114 0 0 1 11.905.222C11.7.107 11.503.014 11.47.016c-.035.001-1.35.674-2.925 1.494ZM1.641 5.084.003 5.93v3.715c0 2.042.021 3.714.048 3.714.026 0 .832-.35 1.791-.777l1.744-.776V7.89l.852.464 1.97 1.07 1.119.605.498-.225c.312-.141.623-.284.934-.428.24-.112.83-.378 1.311-.59.48-.213.925-.428.989-.476.083-.065-.938-.63-3.78-2.089-2.141-1.1-3.963-1.996-4.047-1.992-.084.004-.89.389-1.79.854Zm16.125.238c-1.116.504-2.03.936-2.03.96-.002.025.606.387 1.35.804.745.417 1.354.781 1.354.808 0 .028-.659.347-1.463.71-.806.363-2.84 1.281-4.522 2.042l-5.636 2.547-2.84 1.284C1.083 15.788.287 16.152.178 16.214c-.11.063-.135.428-.155 2.261L0 20.662l1.465.746 1.465.747 2.032-.917c1.117-.504 2.031-.943 2.031-.976 0-.032-.206-.166-.458-.299a35.017 35.017 0 0 1-1.158-.65c-.385-.227-.768-.434-.852-.461-.084-.028-.152-.076-.15-.107 0-.031.895-.456 1.987-.944 2.121-.948 3.744-1.68 7.229-3.255l4.674-2.112a969.8 969.8 0 0 0 3.54-1.605l1.048-.48.023-2.211.023-2.211-1.486-.763c-.817-.42-1.515-.762-1.552-.76-.037 0-.98.414-2.095.918Zm4.689 7.977c-.22.107-.652.307-.961.445-.31.137-.898.402-1.306.589l-.743.339-.017 1.94c-.01 1.069-.049 1.937-.087 1.932-.088-.014-1.48-.727-2.88-1.477-1.01-.541-1.073-.563-1.31-.445-.137.068-.958.436-1.823.817-.865.382-1.6.719-1.635.75-.035.03 1.706.974 3.869 2.096l3.932 2.042 1.68-.869c.923-.477 1.708-.913 1.745-.968.081-.123.074-7.403-.008-7.393a3.956 3.956 0 0 0-.456.202Zm-9.301 8.544-.874.376c-.88.38-.707.393-1.753-.128-.697-.346-.997-.453-1.128-.402-.098.04-.94.418-1.87.842-.93.424-1.725.77-1.764.77-.39 0 .258.388 2.764 1.652l2.938 1.482 1.237-.61c.68-.336 2.051-1.008 3.048-1.494.996-.486 1.799-.896 1.784-.912-.015-.015-.85-.444-1.856-.952l-1.827-.925-.7.3Z" fill="#000"/></g></g><defs><clipPath id="ia"><path fill="#fff" d="M0 0h23v27H0z"/></clipPath></defs></svg><svg fill="none" viewBox="0 0 24 24" id="telegram" xmlns="http://www.w3.org/2000/svg"><g clip-path="url(#ja)"><mask id="jb" style="mask-type:luminance" maskUnits="userSpaceOnUse" x="0" y="0" width="24" height="24"><path d="M24 0H0v24h24V0Z" fill="#fff"/></mask><g mask="url(#jb)"><path d="m9.417 15.18-.397 5.585c.568 0 .814-.244 1.11-.537l2.662-2.545 5.518 4.04c1.012.565 1.725.268 1.998-.93L23.93 3.82l.001-.001c.321-1.496-.54-2.081-1.527-1.714l-21.29 8.15c-1.453.565-1.43 1.375-.247 1.742L6.31 13.69 18.953 5.78c.595-.394 1.136-.176.691.218L9.417 15.18Z" fill="#000"/></g></g><defs><clipPath id="ja"><path fill="#fff" d="M0 0h24v24H0z"/></clipPath></defs></svg><svg fill="none" viewBox="0 0 24 24" id="x" xmlns="http://www.w3.org/2000/svg"><path d="M18.901 1.153h3.68l-8.04 9.19L24 22.846h-7.406l-5.8-7.584-6.638 7.584H.474l8.6-9.83L0 1.154h7.594l5.243 6.932 6.064-6.933ZM17.61 20.644h2.039L6.486 3.24H4.298L17.61 20.644Z" fill="#000"/></svg></svg>