<svg width="1185" height="931" viewBox="0 0 1185 931" fill="none" xmlns="http://www.w3.org/2000/svg">
<path d="M967.041 -102.473C975.288 -104.73 983.183 -97.8838 982.115 -89.4003L969.991 6.95109C969.1 14.0266 974.54 20.3126 981.67 20.4472L1079.09 22.2864C1087.65 22.448 1093.29 31.2566 1089.86 39.0959L1051.07 127.711C1048.21 134.258 1051.67 141.843 1058.49 143.976L1151.69 173.117C1159.88 175.677 1162.82 185.751 1157.28 192.308L1095.08 266.05C1090.45 271.531 1091.64 279.817 1097.61 283.784L1178.96 337.806C1186.13 342.566 1186.1 353.102 1178.91 357.829L1098.37 410.786C1092.35 414.74 1091.15 423.062 1095.79 428.559L1158.71 503.014C1164.28 509.604 1161.29 519.742 1153.03 522.244L1060.67 550.229C1053.76 552.322 1050.25 559.997 1053.19 566.591L1092.66 655.33C1096.18 663.228 1090.44 672.138 1081.8 672.207L985.012 672.982C977.786 673.039 972.25 679.423 973.215 686.584L986.147 782.504C987.302 791.071 979.293 798.012 970.977 795.651L877.544 769.129C870.6 767.157 863.5 771.718 862.406 778.853L847.774 874.243C846.465 882.771 836.854 887.173 829.542 882.593L746.931 830.843C740.832 827.022 732.765 829.392 729.702 835.905L688.676 923.133C685.014 930.92 674.588 932.435 668.861 926.012L603.871 853.13C599.098 847.778 590.728 847.779 585.957 853.132L521.761 925.149C516.053 931.552 505.665 930.072 501.972 922.33L459.933 834.186C456.856 827.735 448.859 825.387 442.783 829.15L360.549 880.087C353.274 884.593 343.756 880.255 342.385 871.808L326.777 775.625C325.634 768.586 318.642 764.09 311.763 765.973L218.098 791.611C209.851 793.869 201.956 787.022 203.023 778.539L215.147 682.187C216.038 675.111 210.598 668.825 203.468 668.691L106.045 666.852C97.4889 666.691 91.8469 657.882 95.278 650.043L134.064 561.427C136.929 554.88 133.473 547.295 126.651 545.162L33.4534 516.023C25.2641 513.463 22.33 503.385 27.8653 496.829L90.0948 423.124C94.7219 417.644 93.5397 409.355 87.5649 405.387L6.17997 351.334C-0.987797 346.573 -0.963376 336.038 6.22635 331.311L86.7709 278.352C92.7844 274.398 93.989 266.077 89.3436 260.579L26.428 186.13C20.8577 179.538 23.8579 169.398 32.1179 166.899L124.501 138.943C131.412 136.852 134.925 129.174 131.988 122.578L92.4777 33.8102C88.9621 25.9119 94.6997 17.0001 103.345 16.9309L200.126 16.1571C207.351 16.0993 212.887 9.71542 211.922 2.5543L198.992 -93.3626C197.837 -101.931 205.847 -108.872 214.163 -106.509L307.628 -79.9582C314.574 -77.985 321.677 -82.5486 322.769 -89.6862L337.37 -185.097C338.675 -193.627 348.289 -198.032 355.602 -193.451L438.207 -141.705C444.306 -137.884 452.373 -140.254 455.436 -146.767L496.462 -233.995C500.125 -241.781 510.55 -243.297 516.277 -236.875L581.305 -163.959C586.079 -158.606 594.452 -158.609 599.222 -163.965L663.377 -235.999C669.084 -242.407 679.476 -240.928 683.17 -233.184L725.205 -145.048C728.282 -138.597 736.28 -136.249 742.355 -140.012L824.59 -190.948C831.865 -195.455 841.383 -191.116 842.754 -182.669L858.362 -86.4868C859.504 -79.4476 866.497 -74.952 873.375 -76.8346L967.041 -102.473Z" fill="url(#paint0_radial_134_16)"/>
<defs>
<radialGradient id="paint0_radial_134_16" cx="0" cy="0" r="1" gradientUnits="userSpaceOnUse" gradientTransform="translate(592.74 399.108) rotate(53.3597) scale(1337.82 1334.75)">
<stop stop-color="#FCBE5F"/>
<stop offset="1" stop-color="#D5301A"/>
</radialGradient>
</defs>
</svg>
