<svg width="61" height="56" viewBox="0 0 61 56" fill="none" xmlns="http://www.w3.org/2000/svg">
<g clip-path="url(#clip0_134_30)">
<path d="M25.0521 19.985C23.5331 19.273 22.4191 17.779 21.35 16.602C18.069 12.845 14.6241 9.23195 11.398 5.42595C9.17205 2.36795 13.5041 -1.02705 15.9411 1.91095C19.7681 6.52395 23.9041 11.004 26.6531 16.381C27.0291 17.132 27.5531 17.994 27.4341 18.871C27.3361 19.693 26.5891 20.162 25.8321 20.162C25.5631 20.162 25.2941 20.104 25.0521 19.981V19.985Z" fill="black"/>
<path d="M36.2142 19.445C32.9142 17.417 37.8092 4.548 39.3672 1.693C40.9292 -1.656 45.8242 0.442002 44.4952 3.861C42.6062 7.579 41.1342 11.474 39.6612 15.366C39.0302 16.589 38.5622 19.616 36.9272 19.616C36.7102 19.616 36.4742 19.564 36.2142 19.445Z" fill="black"/>
<path d="M12.836 31.826C10.461 31.651 8.10298 31.293 5.75798 30.885C4.49698 30.661 3.22898 30.428 1.97698 30.142C0.67898 29.845 -0.15302 28.449 0.0209805 27.17C0.21398 25.744 1.60998 24.613 3.06098 24.858C4.32198 25.073 5.58398 25.361 6.82998 25.662C9.22998 26.257 11.642 26.848 13.963 27.719C14.811 28.063 15.748 28.4 16.339 29.136C16.672 29.584 16.774 30.176 16.553 30.701C16.137 31.694 15.123 31.894 14.119 31.894C13.672 31.894 13.225 31.854 12.836 31.826Z" fill="black"/>
<path d="M14.8781 55.629C13.5861 54.902 13.1551 53.154 13.8991 51.884C15.8551 48.225 18.0991 44.652 20.9981 41.665C22.0361 40.61 24.8891 37.859 25.7591 40.355C25.8841 41.045 25.5451 41.778 25.2751 42.395C24.4431 44.26 23.3461 45.989 22.3391 47.762C21.0441 50.029 19.8351 52.341 18.6171 54.651C18.1511 55.512 17.1901 56.003 16.2321 56.003C15.7601 56.003 15.2891 55.883 14.8781 55.632V55.629Z" fill="black"/>
<path d="M46.0748 50.3909C43.6688 47.8019 41.1858 45.2899 38.7918 42.6889C37.9338 41.6309 36.7618 40.6529 36.4918 39.2599C36.3848 36.8959 38.7638 36.6259 40.3808 37.7639C43.9688 40.1839 47.1188 43.2319 50.0728 46.3819C50.5808 46.9459 50.8998 47.6119 50.8998 48.3849C50.9578 50.0469 49.4608 51.2059 47.9788 51.2059C47.2898 51.2059 46.6048 50.9549 46.0748 50.3869V50.3909Z" fill="black"/>
<path d="M57.7973 30.728C53.9833 30.029 50.1343 29.514 46.2923 29.011C42.8303 28.768 42.5303 25.051 45.9863 24.422C50.1623 23.778 54.4273 24.471 58.5633 25.128C59.3013 25.257 59.9533 25.6 60.4123 26.201C61.8633 27.974 60.4213 30.768 58.2533 30.768C58.1033 30.768 57.9533 30.756 57.7973 30.728Z" fill="black"/>
</g>
<defs>
<clipPath id="clip0_134_30">
<rect width="61" height="56" fill="white"/>
</clipPath>
</defs>
</svg>
