<svg width="510" height="436" viewBox="0 0 510 436" fill="none" xmlns="http://www.w3.org/2000/svg">
<path d="M279.993 5.62092C284.738 -1.54888 295.262 -1.54889 300.007 5.62091L318.302 33.2656C322.263 39.2505 330.557 40.4436 336.044 35.8177L361.39 14.4505C367.963 8.90926 378.059 11.8746 380.592 20.0901L390.353 51.7549C392.468 58.6142 400.091 62.0953 406.659 59.201L436.997 45.8332C444.865 42.3664 453.719 48.0555 453.835 56.6524L454.282 89.7836C454.379 96.9605 460.712 102.448 467.83 101.521L500.694 97.2436C509.22 96.1338 516.112 104.088 513.801 112.369L504.893 144.284C502.964 151.197 507.494 158.247 514.584 159.364L547.327 164.523C555.82 165.861 560.191 175.433 555.641 182.728L538.106 210.84C534.307 216.931 536.669 224.972 543.159 228.04L573.103 242.197C580.877 245.873 582.375 256.292 575.952 262.009L551.206 284.037C545.844 288.809 545.844 297.191 551.206 301.963L575.952 323.991C582.375 329.708 580.877 340.127 573.103 343.803L543.159 357.96C536.669 361.028 534.307 369.069 538.106 375.16L555.641 403.272C560.191 410.567 555.82 420.139 547.327 421.477L514.584 426.636C507.494 427.753 502.964 434.803 504.893 441.716L513.801 473.631C516.112 481.912 509.22 489.866 500.694 488.756L467.83 484.479C460.712 483.552 454.379 489.04 454.282 496.216L453.835 529.348C453.719 537.944 444.865 543.634 436.997 540.167L406.659 526.799C400.091 523.905 392.468 527.386 390.353 534.245L380.592 565.91C378.059 574.125 367.963 577.091 361.39 571.55L336.044 550.182C330.557 545.557 322.263 546.75 318.302 552.734L300.007 580.379C295.262 587.549 284.738 587.549 279.993 580.379L261.698 552.734C257.737 546.75 249.443 545.557 243.956 550.182L218.61 571.55C212.037 577.091 201.941 574.125 199.408 565.91L189.647 534.245C187.532 527.386 179.909 523.905 173.341 526.799L143.01 540.164C135.141 543.631 126.285 537.938 126.173 529.339L125.739 496.221C125.645 489.043 119.311 483.552 112.192 484.479L79.3052 488.758C70.7793 489.867 63.8874 481.913 66.1987 473.632L75.1065 441.716C77.0359 434.803 72.5058 427.753 65.416 426.636L32.6797 421.478C24.1856 420.14 19.8146 410.564 24.368 403.27L41.9135 375.163C45.716 369.072 43.3535 361.027 36.8613 357.959L6.90191 343.801C-0.873595 340.127 -2.37324 329.706 4.05054 323.988L28.7939 301.963C34.1558 297.191 34.1558 288.809 28.794 284.037L4.05055 262.012C-2.37323 256.294 -0.8736 245.873 6.90191 242.199L36.8613 228.041C43.3535 224.973 45.716 216.928 41.9135 210.837L24.368 182.73C19.8146 175.436 24.1856 165.86 32.6797 164.522L65.416 159.364C72.5058 158.247 77.0359 151.197 75.1065 144.284L66.1987 112.368C63.8874 104.087 70.7793 96.1332 79.3052 97.2425L112.192 101.521C119.311 102.448 125.645 96.9572 125.739 89.7786L126.173 56.6607C126.285 48.0617 135.141 42.3689 143.01 45.8365L173.341 59.201C179.909 62.0953 187.532 58.6142 189.647 51.7549L199.408 20.0901C201.941 11.8746 212.037 8.90925 218.61 14.4504L243.956 35.8177C249.443 40.4436 257.737 39.2505 261.698 33.2656L279.993 5.62092Z" fill="url(#paint0_radial_134_914)"/>
<defs>
<radialGradient id="paint0_radial_134_914" cx="0" cy="0" r="1" gradientUnits="userSpaceOnUse" gradientTransform="translate(307.961 313.787) rotate(12.5483) scale(670.342 674.871)">
<stop stop-color="#FCBE5F"/>
<stop offset="1" stop-color="#D5301A"/>
</radialGradient>
</defs>
</svg>
