<svg width="110" height="165" viewBox="0 0 110 165" fill="none" xmlns="http://www.w3.org/2000/svg">
<g clip-path="url(#clip0_134_932)">
<mask id="mask0_134_932" style="mask-type:luminance" maskUnits="userSpaceOnUse" x="0" y="0" width="110" height="165">
<path d="M110 0H0V165H110V0Z" fill="white"/>
</mask>
<g mask="url(#mask0_134_932)">
<path d="M92.4329 68.6303C91.8536 67.4785 90.7666 67.0056 90.3374 66.8186C83.6705 63.9104 66.3951 82.797 62.7135 86.8865C60.2708 86.3824 57.6413 85.9217 54.8444 85.5459C51.107 85.0418 26.3237 92.2404 24.4969 94.4973C23.6698 95.6058 22.9353 96.7801 22.3525 98.0342C22.0524 98.8153 21.8186 99.619 21.6703 100.444C21.515 102.025 21.5726 103.646 21.6598 105.224C21.7558 106.953 21.9442 108.674 22.1693 110.389C22.4188 112.192 22.6927 113.994 22.9475 115.797C27.6637 115.301 32.3799 114.806 37.0979 114.311C47.0556 110.287 57.0149 106.262 66.9726 102.238C68.7488 101.521 70.3523 100.345 72.3361 98.895C78.197 94.6098 81.2766 90.1116 86.7448 81.9622C88.3727 79.5355 89.5993 77.5713 90.5049 75.9622C92.9354 71.6459 93.0593 69.8878 92.4277 68.6321L92.4329 68.6303Z" fill="#F9B0C3"/>
<path d="M22.6933 116.126L22.6532 115.838C22.5415 115.042 22.4246 114.247 22.3077 113.45C22.1612 112.443 22.0146 111.437 21.875 110.429C21.6098 108.404 21.4475 106.755 21.362 105.238C21.2609 103.433 21.2242 101.923 21.3725 100.412L21.376 100.388C21.5226 99.5776 21.7564 98.7479 22.0722 97.9251L22.0809 97.9061C22.6393 96.7058 23.3494 95.5314 24.2567 94.3172C25.3053 93.0199 32.4922 90.5655 38.8712 88.6966C45.3986 86.7844 52.8838 84.9761 54.8886 85.2463C57.45 85.591 60.0463 86.0309 62.6077 86.5557C68.964 79.5079 84.1247 63.7771 90.4619 66.5415C90.9033 66.7338 92.0776 67.2447 92.7057 68.4953C93.374 69.8221 93.3007 71.6252 90.776 76.1078C89.8425 77.7637 88.6089 79.7331 87.0037 82.1268C81.7291 89.987 78.5466 94.7312 72.5217 99.1359L72.4955 99.1549C70.4838 100.625 68.896 101.786 67.0936 102.515L37.1788 114.603L22.6951 116.124L22.6933 116.126ZM21.9745 100.483C21.8314 101.952 21.868 103.433 21.9658 105.205C22.0495 106.707 22.21 108.34 22.4735 110.349C22.6131 111.352 22.7596 112.359 22.9062 113.363C23.0092 114.065 23.1104 114.764 23.2098 115.466L37.0252 114.016L66.8615 101.959C68.5941 101.259 70.1558 100.116 72.1326 98.6717L72.1588 98.6526C78.0964 94.312 81.258 89.6008 86.4942 81.7943C88.0907 79.4126 89.3173 77.4571 90.2438 75.8151C92.779 71.3117 92.6638 69.7667 92.1613 68.7655C91.6309 67.7107 90.6399 67.2794 90.2159 67.0941C84.0322 64.3972 67.7758 81.7146 62.941 87.0875L62.824 87.2174L62.6531 87.1828C60.0498 86.6458 57.4099 86.1955 54.8049 85.8456C53.1717 85.6256 46.688 87.0355 39.0405 89.2768C31.379 91.5216 25.4955 93.7456 24.7348 94.6879C23.8624 95.857 23.1732 96.9933 22.634 98.152C22.3357 98.9332 22.1123 99.7178 21.9727 100.485L21.9745 100.483Z" fill="#773838"/>
<path d="M101.456 75.9812C100.524 77.5747 99.2643 79.5198 97.598 81.9205C91.9989 89.9816 88.8477 94.4313 82.9171 98.623C80.9088 100.042 79.2879 101.192 77.4995 101.881C67.4773 105.746 57.4551 109.612 47.4329 113.476C40.2181 114.117 33.0032 114.759 25.7884 115.4C24.8637 113.587 23.4818 110.244 23.59 105.978C23.7819 98.4013 28.5365 93.4059 29.8225 92.0549C37.7387 83.7357 49.7395 83.8137 53.5903 83.8379C58.139 83.8674 64.3541 84.8027 65.64 84.9967C68.4299 85.4176 71.0506 85.9199 73.4864 86.4637C77.2325 82.4332 94.8098 63.8254 101.429 66.8375C101.855 67.0315 102.935 67.5234 103.495 68.6822C104.106 69.9483 103.954 71.7047 101.454 75.9812H101.456Z" fill="#F9B0C3"/>
<path d="M25.6142 115.717L25.5217 115.535C23.9793 112.513 23.2081 109.204 23.2901 105.969C23.4192 100.864 25.5444 96.1131 29.6045 91.847C37.6115 83.4342 49.642 83.5104 53.594 83.5364C56.5514 83.5555 60.8472 83.9677 65.6873 84.6987C68.2417 85.0832 70.8292 85.5664 73.3836 86.1311C79.8517 79.1854 95.2636 63.6971 101.557 66.5637C101.995 66.7629 103.162 67.2929 103.769 68.5522C104.415 69.8893 104.314 71.6907 101.717 76.1318C100.758 77.7738 99.4913 79.7224 97.8477 82.0901C92.4475 89.8655 89.1882 94.5594 83.0935 98.8654L83.0674 98.8844C81.0329 100.322 79.4259 101.458 77.6113 102.158L47.5046 113.768L47.4627 113.772L25.6142 115.715V115.717ZM52.7914 84.134C48.2723 84.134 37.3934 84.5376 30.0442 92.2592C26.0887 96.4145 24.0211 101.032 23.8938 105.983C23.8153 109.054 24.5324 112.196 25.9684 115.08L47.3633 113.178L77.3897 101.599C79.1328 100.927 80.7136 99.8093 82.7132 98.396L82.7393 98.3769C88.7467 94.1316 91.9833 89.4705 97.3452 81.7489C98.98 79.3933 100.238 77.4585 101.19 75.8304C103.799 71.3685 103.708 69.8201 103.221 68.812C102.708 67.7485 101.724 67.3016 101.302 67.1093C95.1607 64.3138 78.6286 81.3713 73.7082 86.6646L73.5895 86.7927L73.4185 86.7546C70.824 86.1761 68.1911 85.6842 65.5931 85.2928C60.7809 84.567 56.5165 84.1565 53.587 84.1375C53.3497 84.1375 53.081 84.134 52.7879 84.134H52.7914Z" fill="#773838"/>
<path d="M106.069 79.8041C105.973 79.9548 105.877 80.1089 105.778 80.2648C105.381 80.8866 104.949 81.5483 104.478 82.2532C104.036 82.9114 103.562 83.6077 103.052 84.3439C97.0569 92.9956 93.6807 97.771 87.326 102.271C85.1747 103.795 83.4351 105.028 81.5211 105.77C74.8279 108.359 68.1366 110.947 61.4452 113.536C60.4437 113.924 59.4404 114.312 58.4389 114.699C55.4605 115.85 53.6494 118.863 54.042 122.011C54.6823 127.147 55.4099 132.991 56.1201 138.679C57.816 152.285 59.4003 165 59.4003 165L8.74316 164.707C11.9815 150.906 15.2182 137.105 18.4565 123.304C19.2539 119.904 19.4301 116.394 19.0166 112.928C19.0166 112.913 19.0131 112.896 19.0114 112.88C18.4391 108.018 19.2382 104.284 19.5156 103.108C20.1019 100.629 20.922 97.1613 23.7712 93.9015C25.3346 92.114 26.9101 91.0834 27.7494 90.5309C31.1431 88.2999 34.3221 87.6089 35.882 87.3577C41.6137 86.5956 48.3295 86.1435 55.8584 86.4466C57.0902 86.4969 58.3011 86.5644 59.491 86.6493C61.5552 86.7965 63.5547 86.9922 65.488 87.2278C72.8912 88.1302 80.3154 85.7191 85.7191 80.613C88.9644 77.5472 92.6774 74.3064 96.2037 71.8521C99.8625 69.3077 103.317 67.6102 105.837 67.8319C106.085 67.8544 106.322 67.8943 106.55 67.9532C106.756 68.0069 106.954 68.0761 107.144 68.1627C107.311 68.239 107.575 68.3585 107.87 68.5403C108.377 68.8538 108.981 69.3527 109.363 70.1408C110.101 71.665 109.806 73.8561 106.067 79.8041H106.069Z" fill="#F9B0C3"/>
<path d="M54.6733 118.769L54.1621 118.447C55.2683 116.716 56.6572 115.369 58.2868 114.437C59.3163 113.85 60.2445 113.581 60.8569 113.403C61.0541 113.346 61.2233 113.297 61.3333 113.254C68.0264 110.666 74.7177 108.077 81.4091 105.487C83.2813 104.763 84.9755 103.563 87.1216 102.044L87.1495 102.025C93.5896 97.4642 97.0566 92.4602 102.803 84.1722C109.185 74.9627 109.942 72.0251 109.093 70.2705C108.538 69.1238 107.475 68.6423 107.022 68.4362C104.862 67.4558 101.283 68.6891 96.3796 72.0978C93.3384 74.2127 89.8226 77.1503 85.9299 80.8293C83.8762 82.7692 75.7105 88.1646 65.4702 87.5272C63.7167 87.4181 61.9631 87.1236 60.2584 86.6543L60.4207 86.074C62.0853 86.533 63.7969 86.8188 65.5086 86.9262C75.5343 87.5515 83.5081 82.2877 85.5111 80.3928C89.4265 76.693 92.965 73.7364 96.0306 71.6042C101.122 68.0621 104.903 66.8115 107.273 67.8871C107.742 68.1002 108.988 68.6648 109.637 70.0072C110.628 72.0545 109.913 74.9713 103.3 84.5099C97.5172 92.8534 94.0276 97.8885 87.5002 102.511L87.4723 102.531C85.293 104.074 83.5709 105.293 81.6289 106.045C74.9358 108.634 68.2445 111.222 61.5531 113.812C61.417 113.864 61.2443 113.914 61.0262 113.978C60.4399 114.148 59.5553 114.404 58.5887 114.955C57.0445 115.836 55.7272 117.118 54.6733 118.765V118.769Z" fill="#773838"/>
<path d="M90.9486 85.3725C88.7571 83.5954 85.681 82.8783 82.9225 83.5001L82.7881 82.9129C85.7264 82.2495 88.9996 83.0134 91.3325 84.9066L90.9486 85.3725Z" fill="#773838"/>
<path d="M89.9397 82.5566C88.502 82.0768 86.9404 81.862 85.4241 81.9347L85.3945 81.3337C87.0084 81.2558 88.6014 81.474 90.1334 81.9867L89.9397 82.5566Z" fill="#773838"/>
<path d="M106.151 80.2423L105.886 80.0431C104.853 79.2671 104.15 78.356 103.799 77.3324C102.843 74.5489 104.404 70.9219 107.683 68.3048L107.85 68.1714L108.032 68.284C108.761 68.7326 109.302 69.3146 109.639 70.0091C110.429 71.6425 110.152 73.8769 106.327 79.9617L106.151 80.2405V80.2423ZM107.892 68.9145C104.928 71.3602 103.515 74.6442 104.373 77.1401C104.654 77.9594 105.198 78.7042 105.992 79.3589C109.487 73.7435 109.763 71.6581 109.093 70.2724C108.834 69.7389 108.431 69.2834 107.892 68.9145Z" fill="#773838"/>
<mask id="mask1_134_932" style="mask-type:luminance" maskUnits="userSpaceOnUse" x="22" y="14" width="67" height="67">
<path d="M78.3765 70.724C91.2575 57.9369 91.2575 37.205 78.3765 24.4179C65.4954 11.6309 44.6112 11.6309 31.7301 24.4179C18.8491 37.205 18.8491 57.9369 31.7301 70.724C44.6112 83.511 65.4954 83.511 78.3765 70.724Z" fill="white"/>
</mask>
<g mask="url(#mask1_134_932)">
<path d="M78.3765 70.724C91.2575 57.9369 91.2575 37.205 78.3765 24.4179C65.4954 11.6309 44.6112 11.6309 31.7301 24.4179C18.8491 37.205 18.8491 57.9369 31.7301 70.724C44.6112 83.511 65.4954 83.511 78.3765 70.724Z" fill="#FFC212"/>
<path d="M78.3765 70.724C91.2575 57.9369 91.2575 37.205 78.3765 24.4179C65.4954 11.6309 44.6112 11.6309 31.7301 24.4179C18.8491 37.205 18.8491 57.9369 31.7301 70.724C44.6112 83.511 65.4954 83.511 78.3765 70.724Z" fill="#3D3B3B"/>
<path d="M76.4034 35.8853L14.5488 36.1961L14.5843 43.1607L76.4389 42.8499L76.4034 35.8853Z" fill="#FFC212"/>
<path d="M75.6691 31.1226L13.8145 31.4333L13.8293 34.3294L75.6839 34.0186L75.6691 31.1226Z" fill="#FFC212"/>
<path d="M75.4181 28.0684L13.5635 28.3792L13.5689 29.4496L75.4235 29.1388L75.4181 28.0684Z" fill="#FFC212"/>
<path d="M75.795 44.7759L13.9404 45.0867L13.9459 46.1571L75.8005 45.8463L75.795 44.7759Z" fill="#FFC212"/>
<path d="M77.1641 55.4346L15.3096 55.7454L15.3451 62.71L77.1997 62.3992L77.1641 55.4346Z" fill="#FFC212"/>
</g>
<path d="M60.2242 80.2874C78.4407 80.2874 93.2081 65.6277 93.2081 47.5441C93.2081 29.4605 78.4407 14.8008 60.2242 14.8008C42.0076 14.8008 27.2402 29.4605 27.2402 47.5441C27.2402 65.6277 42.0076 80.2874 60.2242 80.2874Z" fill="#FFC212"/>
<path d="M60.2203 80.5786C51.395 80.5786 43.0915 77.1889 36.8136 71.0209C30.4974 64.8132 26.9921 56.5355 26.9467 47.7106C26.8542 29.496 41.7061 14.6018 60.0545 14.5083C60.1121 14.5083 60.1714 14.5083 60.229 14.5083C69.0543 14.5083 77.3596 17.8979 83.6357 24.0659C89.9537 30.2737 93.4572 38.5513 93.5009 47.3763C93.5462 56.1995 90.1264 64.5135 83.873 70.7836C77.6196 77.0538 69.2811 80.5335 60.393 80.5768C60.3354 80.5768 60.2761 80.5768 60.2185 80.5768L60.2203 80.5786ZM60.229 15.092C60.1714 15.092 60.1156 15.092 60.058 15.092C42.0324 15.182 27.4405 29.8147 27.533 47.7088C27.5766 56.3779 31.0191 64.51 37.2254 70.6087C43.3916 76.6675 51.5503 79.9983 60.2203 79.9983C60.2779 79.9983 60.3337 79.9983 60.3913 79.9983C69.1241 79.955 77.316 76.5376 83.4595 70.3766C89.6029 64.2156 92.9617 56.0488 92.9164 47.3815C92.8727 38.7124 89.4302 30.5803 83.2239 24.4816C77.0577 18.4228 68.8972 15.092 60.229 15.092Z" fill="#3D3B3B"/>
<path d="M60.2238 77.0346C76.6306 77.0346 89.931 63.8313 89.931 47.5442C89.931 31.257 76.6306 18.0537 60.2238 18.0537C43.8169 18.0537 30.5166 31.257 30.5166 47.5442C30.5166 63.8313 43.8169 77.0346 60.2238 77.0346Z" fill="#F7941D"/>
<path d="M60.2204 77.3255C52.2658 77.3255 44.7787 74.2701 39.1202 68.7102C33.4252 63.1138 30.2671 55.652 30.2269 47.6965C30.1868 39.7428 33.2681 32.2481 38.9056 26.5945C44.5431 20.941 52.0598 17.806 60.0737 17.7661C60.126 17.7661 60.1766 17.7661 60.229 17.7661C76.7001 17.7661 90.1421 31.0252 90.2258 47.3951C90.3096 63.8153 76.9199 77.2424 60.379 77.3255C60.3267 77.3255 60.2744 77.3255 60.222 77.3255H60.2204ZM60.2273 18.3446C60.1767 18.3446 60.126 18.3446 60.0754 18.3446C52.2186 18.3845 44.8485 21.4589 39.3209 27.0016C33.7933 32.5443 30.7713 39.8917 30.8114 47.6913C30.8516 55.4909 33.9486 62.8072 39.532 68.2945C45.0788 73.7453 52.4211 76.7418 60.2204 76.7418C60.271 76.7418 60.3232 76.7418 60.3738 76.7418C76.5919 76.6604 89.7181 63.4931 89.6378 47.3951C89.5558 31.3456 76.3755 18.3446 60.2273 18.3446Z" fill="#3D3B3B"/>
<path d="M57.7654 63.3457C56.6295 63.3509 55.5565 63.3561 54.4503 63.363C54.4415 61.7227 54.4328 60.0963 54.4258 58.437C52.3984 58.2308 50.3918 58.34 48.3574 58.3174C48.4603 57.6818 48.5615 57.0738 48.6592 56.4658C48.743 55.9462 48.8337 55.4266 48.9018 54.9052C48.9297 54.6957 49.0256 54.642 49.2193 54.6437C49.8998 54.6472 50.582 54.6454 51.2625 54.6316C52.0372 54.616 52.2623 54.3908 52.2588 53.6391C52.2379 49.1824 52.2169 44.7241 52.189 40.2674C52.1838 39.3736 51.6481 38.8142 50.7408 38.7536C50.3517 38.7276 49.9609 38.7345 49.5718 38.7328C49.1844 38.731 48.7971 38.7362 48.3853 38.738C48.3801 37.697 48.3748 36.6716 48.3696 35.6254C50.3377 35.615 52.2902 35.6064 54.2758 35.596C54.2671 33.9055 54.2583 32.234 54.2496 30.5366C55.3715 30.5314 56.4586 30.5262 57.5752 30.5192C57.584 32.1664 57.5927 33.8033 57.5997 35.4436C58.3988 35.4401 59.1665 35.4349 59.9726 35.4314C59.9639 33.7756 59.9552 32.1491 59.9482 30.5019C60.9602 30.4967 61.9373 30.4915 62.9423 30.4863C62.951 32.1578 62.9597 33.8344 62.9685 35.5076C63.7571 35.6306 64.5266 35.7138 65.2786 35.8748C66.6203 36.1606 67.901 36.6075 68.9322 37.5636C69.8221 38.3881 70.2251 39.4412 70.3542 40.6156C70.4467 41.466 70.4101 42.3095 70.1379 43.1305C69.8011 44.1455 69.1433 44.9025 68.2517 45.4758C68.1174 45.5624 67.9796 45.6386 67.8818 45.6958C68.5379 45.9781 69.2358 46.2119 69.8657 46.5653C71.2755 47.3551 72.031 48.6005 72.1793 50.1905C72.3154 51.6489 72.1723 53.0762 71.5617 54.4324C70.8969 55.9116 69.7366 56.8486 68.2448 57.4289C66.7338 58.0178 65.1582 58.2707 63.546 58.3486C63.4413 58.3538 63.3384 58.3607 63.2354 58.3711C63.2023 58.3746 63.1708 58.3902 63.1115 58.4075C63.1202 60.0339 63.129 61.6638 63.136 63.3162C62.1309 63.3214 61.1538 63.3266 60.1419 63.3318C60.1331 61.7331 60.1261 60.1309 60.1174 58.4924C59.3166 58.4959 58.5488 58.501 57.741 58.5045C57.7497 60.0963 57.7567 61.7071 57.7654 63.3491V63.3457ZM57.6991 48.1137C57.7113 50.3533 57.7218 52.5617 57.7323 54.7615C58.8071 54.7563 59.8592 54.7961 60.9061 54.7338C62.199 54.6558 63.4762 54.4549 64.647 53.8331C66.2504 52.9809 66.6343 50.9977 65.4635 49.6155C64.8598 48.9036 64.0258 48.6386 63.1761 48.4221C61.3842 47.9631 59.5556 48.0808 57.6991 48.1137ZM57.6782 45.0878C57.9033 45.0878 58.0987 45.0826 58.2941 45.0843C59.7981 45.0999 61.3056 45.0757 62.7364 44.5508C63.5407 44.2564 64.2491 43.7922 64.5405 42.9192C65.0134 41.5024 64.3259 40.0838 62.9283 39.5226C62.0036 39.1519 61.0317 39.0359 60.0494 38.9961C59.2555 38.9649 58.4599 38.9961 57.6468 39.0013C57.6572 41.0503 57.6677 43.0422 57.6782 45.0878Z" fill="#3D3B3B"/>
<path d="M59.3621 63.3372C58.2262 63.3424 57.1532 63.3476 56.047 63.3545C56.0382 61.7142 56.0295 60.0878 56.0225 58.4284C53.9951 58.2223 51.9885 58.3314 49.9541 58.3089C50.057 57.6733 50.1582 57.0653 50.2559 56.4573C50.3397 55.9377 50.4304 55.4181 50.4985 54.8967C50.5264 54.6871 50.6223 54.6334 50.816 54.6352C51.4965 54.6386 52.1787 54.6369 52.8592 54.623C53.6339 54.6075 53.859 54.3823 53.8555 53.6306C53.8345 49.1739 53.8136 44.7155 53.7857 40.2589C53.7805 39.3651 53.2448 38.8057 52.3375 38.745C51.9484 38.7191 51.5576 38.726 51.1685 38.7243C50.7811 38.7225 50.3938 38.7277 49.982 38.7295C49.9768 37.6885 49.9715 36.6631 49.9663 35.6169C51.9344 35.6065 53.8869 35.5978 55.8725 35.5875C55.8638 33.8969 55.855 32.2255 55.8463 30.528C56.9682 30.5228 58.0553 30.5176 59.1719 30.5107C59.1807 32.1579 59.1894 33.7947 59.1964 35.4333C59.9955 35.4298 60.7632 35.4246 61.5693 35.4212C61.5606 33.7653 61.5519 32.1389 61.5449 30.4917C62.5569 30.4865 63.534 30.4813 64.539 30.4761C64.5477 32.1475 64.5564 33.8242 64.5651 35.4974C65.3538 35.6204 66.1233 35.7035 66.8753 35.8646C68.217 36.1504 69.4977 36.5973 70.5289 37.5534C71.4188 38.3778 71.8218 39.4309 71.9509 40.6053C72.0434 41.4558 72.0068 42.2993 71.7346 43.1203C71.3978 44.1353 70.74 44.8922 69.8484 45.4655C69.7141 45.5521 69.5763 45.6283 69.4785 45.6855C70.1346 45.9678 70.8325 46.2017 71.4624 46.555C72.8722 47.3448 73.6277 48.5902 73.776 50.1803C73.9121 51.6387 73.769 53.0659 73.1584 54.4221C72.4936 55.9013 71.3333 56.8384 69.8415 57.4186C68.3305 58.0075 66.7549 58.2604 65.1427 58.3384C65.038 58.3436 64.935 58.3505 64.8321 58.3609C64.799 58.3643 64.7675 58.3799 64.7082 58.3973C64.7169 60.0237 64.7257 61.6536 64.7326 63.306C63.7276 63.3112 62.7505 63.3164 61.7385 63.3216C61.7298 61.7229 61.7228 60.1207 61.7141 58.4821C60.9133 58.4856 60.1455 58.4908 59.3377 58.4943C59.3464 60.086 59.3534 61.6969 59.3621 63.3389V63.3372ZM59.2958 48.107C59.308 50.3465 59.3185 52.5549 59.329 54.7547C60.4038 54.7495 61.4559 54.7893 62.5028 54.727C63.7957 54.649 65.0729 54.4481 66.2437 53.8263C67.8471 52.9741 68.231 50.9909 67.0602 49.6087C66.4565 48.8968 65.6225 48.6318 64.7728 48.4153C62.9809 47.9563 61.1523 48.074 59.2958 48.107ZM59.2749 45.081C59.5 45.081 59.6954 45.0758 59.8908 45.0775C61.3948 45.0931 62.9023 45.0689 64.3331 44.5441C65.1374 44.2496 65.8458 43.7854 66.1372 42.9124C66.6101 41.4956 65.9226 40.077 64.525 39.5158C63.6003 39.1452 62.6284 39.0291 61.6461 38.9893C60.8522 38.9581 60.0566 38.9893 59.2435 38.9945C59.2539 41.0435 59.2644 43.0354 59.2749 45.081Z" fill="#FFC212"/>
<path d="M55.7575 63.6454L55.7314 58.6917C54.4018 58.5739 53.0548 58.5843 51.7497 58.5947C51.1617 58.5999 50.5545 58.6033 49.9525 58.5982L49.6123 58.5947L49.7501 57.7529C49.8234 57.2974 49.8967 56.8539 49.9682 56.4105L50.0311 56.0295C50.0939 55.645 50.1602 55.2483 50.2108 54.8569C50.2544 54.5156 50.4585 54.3424 50.8145 54.3424H50.8197C51.3763 54.3459 52.1091 54.3459 52.8559 54.3303C53.4683 54.3182 53.5678 54.2194 53.566 53.6305C53.5451 49.1739 53.5242 44.7155 53.4963 40.2589C53.491 39.5193 53.074 39.0845 52.3202 39.0325C52.0271 39.0118 51.7235 39.0118 51.4304 39.0118H51.1704C50.9052 39.01 50.64 39.0118 50.3678 39.0135L49.6943 39.017L49.6751 35.3241L55.5813 35.2947L55.5551 30.2353L59.4653 30.2162L59.4897 35.1405L61.2764 35.1319L61.2519 30.2024L64.8323 30.1851L64.8585 35.2497C65.0207 35.2739 65.183 35.2964 65.3435 35.319C65.8687 35.3934 66.4114 35.4696 66.9383 35.5822C68.0812 35.8247 69.5468 36.2456 70.7298 37.342C71.5987 38.1474 72.0925 39.204 72.2425 40.5741C72.3507 41.5562 72.2757 42.4188 72.0122 43.2121C71.6877 44.1924 71.0508 45.0082 70.1208 45.6352C70.1505 45.6474 70.1802 45.6595 70.2098 45.6716C70.6757 45.8569 71.1573 46.0492 71.6074 46.3021C73.0783 47.1266 73.9071 48.4222 74.0676 50.1542C74.2211 51.8049 74.0118 53.2391 73.4255 54.5416C72.7677 56.0052 71.6301 57.0358 69.9481 57.6905C68.5505 58.2344 66.9819 58.5427 65.1568 58.6293C65.1045 58.6311 65.0522 58.6345 65.0016 58.638L65.026 63.5952L61.4456 63.6125L61.4212 58.7731L59.631 58.7818L59.6554 63.6264L55.7558 63.6454H55.7575ZM52.8751 58.0092C53.9237 58.0092 54.9916 58.0318 56.0542 58.1392L56.3159 58.1651L56.3403 63.0617L59.0692 63.0479L59.0448 58.2032L62.0057 58.1877L62.0301 63.0271L64.4397 63.015L64.4153 58.1825L64.6229 58.1184C64.6404 58.1132 64.6543 58.108 64.6665 58.1045C64.7032 58.0924 64.7486 58.0751 64.8061 58.0699C64.9143 58.0595 65.0242 58.0525 65.1324 58.0474C66.8947 57.9625 68.4004 57.668 69.7387 57.1484C71.2707 56.5526 72.3036 55.6207 72.8951 54.3043C73.4377 53.0971 73.6331 51.7564 73.4883 50.2079C73.3452 48.6768 72.6177 47.5336 71.323 46.8079C70.906 46.574 70.4419 46.3887 69.9952 46.2103C69.7841 46.1254 69.573 46.0423 69.3671 45.9522L68.8436 45.727L69.4299 45.3806C69.5102 45.3356 69.6026 45.2802 69.6934 45.223C70.5832 44.6514 71.1607 43.9343 71.4591 43.0319C71.6947 42.32 71.7627 41.5371 71.6632 40.6382C71.5289 39.4119 71.0927 38.4731 70.332 37.7681C69.2537 36.767 67.8857 36.379 66.8162 36.1504C66.3102 36.043 65.8007 35.9702 65.2615 35.894C65.0173 35.8594 64.7712 35.8247 64.5217 35.7866L64.2757 35.7485L64.2495 30.7688L61.84 30.7809L61.8644 35.7104L58.9069 35.726L58.8825 30.8017L56.1431 30.8155L56.1693 35.875L50.2631 35.9044L50.2753 38.435H50.3626C50.6383 38.4315 50.907 38.4298 51.1739 38.4315H51.4304C51.734 38.4315 52.0481 38.4315 52.3604 38.454C53.416 38.5268 54.0755 39.2179 54.0808 40.2571C54.1069 44.7138 54.1296 49.1722 54.1506 53.6288C54.154 54.5451 53.8068 54.8932 52.8681 54.9123C52.1161 54.9279 51.3763 54.9261 50.818 54.9244C50.8075 54.9244 50.8005 54.9244 50.7918 54.9244C50.7918 54.9244 50.7918 54.9296 50.7918 54.9331C50.7395 55.3332 50.6731 55.735 50.6103 56.1247L50.5493 56.5023C50.4777 56.9475 50.4044 57.3909 50.3312 57.8464L50.3032 58.0214C50.7883 58.0231 51.2751 58.0214 51.7497 58.0162C52.1231 58.0127 52.5 58.011 52.8786 58.011L52.8751 58.0092ZM61.0792 55.0526C60.8227 55.0526 60.568 55.0508 60.3167 55.0491C59.9904 55.0457 59.6607 55.0439 59.3309 55.0456H59.0378L59.0011 47.8211L59.2908 47.8159C59.5263 47.8125 59.7601 47.8055 59.9957 47.8003C61.5922 47.7622 63.2428 47.7224 64.8463 48.1329C65.7169 48.3563 66.6225 48.6387 67.2855 49.4216C67.9014 50.1473 68.1544 51.0774 67.9817 51.9712C67.809 52.865 67.2262 53.634 66.3834 54.0826C65.0644 54.7841 63.6266 54.9504 62.5222 55.0162C62.0441 55.0457 61.5608 55.0526 61.081 55.0526H61.0792ZM59.6206 54.4637C59.8544 54.4637 60.0882 54.4654 60.3202 54.4671C61.067 54.4741 61.7719 54.4793 62.4855 54.436C63.5307 54.3736 64.8864 54.2177 66.106 53.5699C66.7917 53.2062 67.2663 52.5826 67.4059 51.8621C67.5455 51.1398 67.3379 50.3881 66.8371 49.7957C66.284 49.1444 65.511 48.9037 64.6997 48.6958C63.1747 48.3061 61.6376 48.3425 60.0079 48.3823C59.8683 48.3858 59.7287 48.3893 59.5891 48.3927L59.6206 54.4654V54.4637ZM58.9854 45.372L58.9505 38.7052H59.2437C59.4932 38.7017 59.7409 38.6982 59.9887 38.6948C60.5366 38.6861 61.1036 38.6775 61.6602 38.7C62.4943 38.7329 63.5865 38.8264 64.6369 39.2473C66.1863 39.8691 66.9348 41.4488 66.4166 43.0042C66.1392 43.8373 65.4901 44.4314 64.4362 44.8177C62.9723 45.3546 61.4491 45.3841 59.8892 45.3685C59.7584 45.3685 59.6275 45.3685 59.4879 45.3685L58.9872 45.372H58.9854ZM59.7671 44.7865C59.809 44.7865 59.8509 44.7865 59.8945 44.7865C61.3968 44.8021 62.8624 44.7744 64.2338 44.2721C65.1237 43.9465 65.6402 43.4857 65.8617 42.8206C66.2805 41.5648 65.6733 40.2883 64.417 39.7843C63.4504 39.3963 62.4245 39.3114 61.6376 39.2785C61.0967 39.256 60.5645 39.2646 59.9992 39.275C59.8474 39.2768 59.6938 39.2802 59.5403 39.282L59.5682 44.7865C59.6363 44.7865 59.7026 44.7865 59.7689 44.7865H59.7671Z" fill="#3D3B3B"/>
<g opacity="0.8">
<path d="M91.0489 42.8483C91.2617 44.3535 91.3734 45.8656 91.41 47.3864C91.4205 47.8246 92.1097 47.8263 92.0975 47.3864C92.0591 45.805 91.9335 44.234 91.7119 42.6682C91.6508 42.2351 90.9878 42.4187 91.0489 42.85V42.8483Z" fill="white"/>
<path d="M86.9629 31.6017C88.3099 33.8014 89.3167 36.1571 90.0774 38.6149C90.2065 39.0341 90.8713 38.8557 90.7404 38.433C89.964 35.9198 88.9346 33.5053 87.5562 31.257C87.3258 30.8811 86.7309 31.2241 86.9612 31.6017H86.9629Z" fill="white"/>
<path d="M60.0648 16.5866C68.9686 16.4826 77.7816 20.3833 83.6163 27.0674C83.9059 27.4 84.391 26.915 84.1031 26.5841C78.1567 19.7701 69.1361 15.7985 60.0648 15.9024C59.6216 15.9076 59.6216 16.59 60.0648 16.5848V16.5866Z" fill="white"/>
</g>
<path d="M60.0737 18.0551C57.6728 18.0672 55.3418 18.3617 53.1084 18.9073C54.9858 18.528 56.9278 18.3236 58.9169 18.3132C75.3234 18.2301 88.6904 31.3662 88.7741 47.653C88.8457 61.5564 79.2108 73.2618 66.184 76.4402C79.7936 73.6896 90.0042 61.7071 89.9309 47.3949C89.8472 31.1081 76.4802 17.972 60.0737 18.0551Z" fill="#3D3B3B"/>
<path d="M65.8035 75.3423C63.7865 80.6286 62.3959 83.1159 61.6997 84.1673C48.317 104.396 40.2594 125.763 29.7557 124.643C23.6907 123.997 18.7494 116.057 17.9101 109.523C16.9243 101.852 21.5603 95.9022 22.5635 94.6135C26.3707 89.729 31.9838 86.9767 35.2553 85.3746C38.2197 83.9213 41.0743 82.9358 44.7855 79.9947C45.7067 79.2655 45.1275 79.4283 48.9992 76.0681C49.9239 75.2661 50.847 74.504 51.8136 73.7384C54.0923 71.9353 56.6101 70.1132 59.9444 67.7038C60.5499 67.2674 62.0295 66.2939 63.6207 66.5918C64.6432 66.7824 65.4824 67.4856 66.0356 68.3897C66.4037 68.989 66.6462 69.6749 66.7335 70.3591C66.9516 72.0704 66.4055 73.754 65.8018 75.3406L65.8035 75.3423Z" fill="#F9B0C3"/>
<path d="M36.1076 120.555C33.6875 120.555 31.2884 120.281 28.9381 119.734C26.7833 119.233 24.6721 118.499 22.6621 117.553L22.922 117.009C24.8937 117.936 26.9648 118.656 29.076 119.148C32.5168 119.949 36.064 120.155 39.6234 119.758L39.6914 120.356C38.4945 120.489 37.2993 120.555 36.1076 120.555Z" fill="#773838"/>
<path d="M51.6949 98.0358L51.2256 97.6547C54.5931 93.5757 57.8419 89.3615 60.8831 85.1266C63.1217 82.0088 64.802 78.6728 65.8785 75.2087C66.8504 72.0805 66.8853 70.3294 66.0059 68.9662C65.376 67.9894 64.2907 67.2619 62.8687 66.8618L63.0345 66.2832C64.6013 66.7249 65.8052 67.5407 66.5154 68.6423C67.4925 70.1562 67.475 72.11 66.4561 75.3871C65.3603 78.9119 63.6521 82.3068 61.3752 85.4765C58.3252 89.7218 55.0677 93.9481 51.6932 98.0375L51.6949 98.0358Z" fill="#773838"/>
<path d="M58.8121 74.0311C56.9661 74.0311 54.8758 73.3816 53.9092 72.1276L54.3908 71.7621C55.654 73.4024 59.2571 73.8735 60.9234 73.0161C61.5009 72.7199 62.0156 72.2696 62.5111 71.8366L64.1949 70.3591C64.912 69.7303 65.5018 69.2038 66.0357 68.6045L66.4893 69.0029C65.8891 69.6767 65.172 70.3054 64.5962 70.8094L62.9177 72.2817C62.389 72.7442 61.8464 73.2188 61.2025 73.5496C60.5761 73.8718 59.7229 74.0311 58.8121 74.0311Z" fill="#773838"/>
<path d="M6.37555 39.0379L5.35134 32.8613L4.32714 39.0379L0 39.9559L4.32539 41.054L5.35134 47.2341L6.37729 41.0558L10.8039 40.0044L6.37555 39.0379Z" fill="#7767BF"/>
<path d="M100.997 12.3306L99.3829 2.6084L97.7707 12.3306L90.959 13.7751L97.769 15.5055L99.3829 25.2346L100.997 15.509L107.966 13.8531L100.997 12.3306Z" fill="#7767BF"/>
<path d="M15.0156 24.5471L14.2688 20.0454L13.522 24.5454L10.3691 25.2139L13.522 26.0159L14.2688 30.5193L15.0156 26.0176L18.2417 25.2503L15.0156 24.5471Z" fill="#7767BF"/>
<path d="M10.6611 59.2357L9.91431 54.7358L9.16753 59.2357L6.01465 59.9043L9.16753 60.7063L9.91431 65.2097L10.6611 60.708L13.8873 59.9407L10.6611 59.2357Z" fill="#7767BF"/>
<path d="M87.7802 4.50169L87.0334 0L86.2866 4.49995L83.1338 5.17027L86.2866 5.97049L87.0334 10.4739L87.7802 5.97222L91.0064 5.20491L87.7802 4.50169Z" fill="#7767BF"/>
</g>
</g>
<defs>
<clipPath id="clip0_134_932">
<rect width="110" height="165" fill="white"/>
</clipPath>
</defs>
</svg>
