<svg width="230" height="280" viewBox="0 0 230 280" fill="none" xmlns="http://www.w3.org/2000/svg">
<g clip-path="url(#clip0_134_834)">
<mask id="mask0_134_834" style="mask-type:luminance" maskUnits="userSpaceOnUse" x="0" y="-3" width="230" height="286">
<path d="M230 -2.16016H0V282.17H230V-2.16016Z" fill="white"/>
</mask>
<g mask="url(#mask0_134_834)">
<path d="M76.0348 20.8579C83.477 31.3179 88.0238 40.7482 90.8031 47.5679C95.1541 58.2416 95.9971 64.5156 96.218 68.8046C96.2932 70.236 96.3729 72.88 95.7626 79.1642C94.7991 89.0908 94.8815 93.4219 89.1417 113.057C83.4642 132.473 81.0555 133.48 79.716 133.604C76.0271 133.939 72.3124 127.656 70.8802 123.79C68.9739 118.638 69.6462 113.793 70.6818 106.34C70.8338 105.246 70.9781 104.384 71.1172 103.647C71.5422 101.387 71.9132 99.7414 71.9544 99.5693C72.3434 97.8878 73.008 90.2164 69.6282 79.7254C65.862 68.0348 59.1437 59.2636 55.125 54.6296L76.0348 20.8605V20.8579Z" fill="#F9B0C3"/>
<path d="M98.6423 87.9286L126.748 109.088C130.444 111.871 131.181 117.121 128.398 120.812L73.4487 193.705C70.6639 197.4 65.4114 198.136 61.7173 195.355L33.6127 174.196C29.916 171.413 29.1793 166.164 31.9614 162.472L86.9111 89.5789C89.6958 85.8845 94.9487 85.1482 98.6423 87.9286Z" fill="#2D876B"/>
<path d="M118.201 128.569L78.0925 181.775C72.7704 188.835 62.7315 190.245 55.668 184.926L45.3096 177.128C38.2462 171.809 36.8345 161.776 42.1565 154.718L82.2657 101.511C87.5878 94.4521 97.6264 93.0413 104.69 98.3603L115.048 106.158C122.112 111.476 123.524 121.509 118.201 128.569Z" fill="#51AF95"/>
<path d="M38.3087 158.817C44.2543 163.294 45.4418 171.738 40.9647 177.679C40.6298 178.122 40.2743 178.54 39.8982 178.928L33.6127 174.196C29.916 171.413 29.1793 166.164 31.9614 162.472L35.8332 157.336C36.6936 157.73 37.5231 158.225 38.3087 158.817Z" fill="#2D876B"/>
<path d="M98.642 87.9283L104.928 92.6601C104.657 93.1282 104.353 93.5873 104.021 94.0301C99.5439 99.9711 91.0919 101.158 85.1463 96.6841C84.3606 96.0919 83.6573 95.43 83.0391 94.7119L86.9108 89.5759C89.6956 85.8816 94.9484 85.1453 98.642 87.9256V87.9283Z" fill="#2D876B"/>
<path d="M120.461 104.356L126.747 109.088C130.443 111.871 131.18 117.121 128.398 120.813L124.526 125.949C123.666 125.555 122.836 125.06 122.05 124.468C116.105 119.991 114.917 111.547 119.394 105.605C119.729 105.162 120.085 104.745 120.461 104.356Z" fill="#2D876B"/>
<path d="M75.2103 186.603C75.996 187.196 76.6992 187.857 77.3175 188.575L73.4456 193.711C70.661 197.405 65.4084 198.141 61.7143 195.361L55.4287 190.629C55.6992 190.161 56.0032 189.703 56.3355 189.26C60.8152 183.318 69.2647 182.131 75.2103 186.605V186.603Z" fill="#2D876B"/>
<path d="M66.7456 197.443C64.9063 197.443 63.0516 196.869 61.4725 195.679L33.3677 174.52C29.5011 171.608 28.7231 166.094 31.6367 162.23L86.5864 89.3368C87.998 87.4648 90.0537 86.2522 92.3769 85.9253C94.7013 85.5983 97.0113 86.1956 98.8848 87.6064L126.989 108.766C130.856 111.677 131.634 117.192 128.72 121.057L73.7705 193.95C72.0471 196.235 69.4118 197.44 66.7456 197.443ZM93.6192 86.6461C93.2452 86.6461 92.8695 86.6719 92.491 86.7259C90.3808 87.022 88.5132 88.1213 87.2329 89.8231L32.2832 162.716C29.6377 166.225 30.3434 171.232 33.8546 173.876L61.9593 195.036C65.4705 197.679 70.4809 196.977 73.1265 193.465L128.076 120.572C130.722 117.063 130.018 112.056 126.505 109.412L98.4003 88.2526C97.004 87.1996 95.337 86.6461 93.6192 86.6461Z" fill="#3D3B3B"/>
<path d="M94.5355 155.992C102.465 148.067 102.465 135.218 94.5355 127.294C86.6065 119.369 73.7504 119.369 65.8211 127.294C57.8917 135.218 57.8917 148.067 65.8211 155.992C73.7504 163.916 86.6065 163.916 94.5355 155.992Z" fill="#2D876B"/>
<path d="M89.7211 128.987C82.7272 123.719 72.7836 125.116 67.5156 132.109C62.245 139.098 63.6438 149.036 70.6404 154.301C77.6344 159.568 87.5779 158.17 92.8457 151.18C98.1167 144.191 96.7177 134.254 89.7211 128.988V128.987Z" fill="#51AF95"/>
<path d="M82.8119 25.039L44.0397 43.9071L35.8428 -2.16016H80.3234L82.8119 25.039Z" fill="#F9B0C3"/>
<path d="M58.7576 30.3086L58.2295 29.6393C63.1008 25.7956 69.4328 23.9703 75.6024 24.6346L75.5122 25.4815C69.5615 24.843 63.4563 26.6014 58.7601 30.3086H58.7576Z" fill="#773838"/>
<path d="M82.8118 25.0361L95.6814 70.9361C95.6814 70.9361 74.7385 84.1765 74.7385 84.1791C67.1958 89.645 60.0627 95.5996 52.8781 101.536C50.7684 103.279 53.9627 107.31 55.243 108.565C55.243 108.565 56.3198 109.618 59.1766 113.219C60.2148 114.526 61.3842 116.478 62.1236 119.403C62.4971 120.87 63.5481 122.067 64.9624 122.613C69.4499 124.348 75.5139 127.615 80.1998 133.796C80.4908 134.18 85.1303 140.421 86.511 146.44C87.1319 149.146 87.0958 151.808 85.7074 153.872C85.4781 154.212 84.5095 156.905 82.5955 156.398C77.6675 155.09 72.791 153.267 68.0537 151.491C67.8759 151.424 67.6956 151.357 67.5178 151.287C65.9877 150.708 64.4626 150.111 62.9453 149.493C50.4232 144.401 39.694 130.792 31.8704 120.129C30.4742 118.226 27.9085 115.487 25.7884 111.126C25.2654 110.05 23.5317 106.358 22.5581 101.294C20.1984 89.0265 24.114 78.1961 27.2284 69.5844C28.4778 66.1296 29.6731 63.586 30.4125 62.0929C32.0972 58.6791 34.0627 55.4044 36.291 52.3202C37.8778 50.1216 40.4847 45.6035 42.9887 44.3857C43.0016 44.3806 82.8118 25.0361 82.8118 25.0361Z" fill="#F9B0C3"/>
<path d="M67.9051 151.891C66.1946 151.25 64.4713 150.575 62.7865 149.891C50.7177 144.984 40.2126 132.219 31.5287 120.382C31.2171 119.957 30.8538 119.498 30.4313 118.966C29.012 117.179 27.0695 114.731 25.408 111.312C24.5734 109.592 23.0355 106.014 22.1442 101.375C19.7639 88.9919 23.6821 78.1504 26.8326 69.441C27.7882 66.7997 28.8342 64.3334 30.0346 61.9056C31.0083 59.9311 32.8219 56.2547 35.9543 52.0661C38.2445 49.0025 40.8694 46.15 43.7624 43.5884L44.3291 44.2268C41.48 46.7499 38.8936 49.5612 36.637 52.5759C33.5509 56.7027 31.7605 60.3327 30.7997 62.2841C29.6148 64.6835 28.5791 67.1215 27.6363 69.732C24.5219 78.3461 20.6475 89.0635 22.984 101.215C23.8572 105.759 25.3591 109.26 26.1782 110.941C27.7986 114.275 29.71 116.68 31.1037 118.438C31.5133 118.956 31.9023 119.442 32.2216 119.88C40.8359 131.622 51.2432 144.276 63.1136 149.103C64.7933 149.785 66.5063 150.457 68.2117 151.095L67.9128 151.893L67.9051 151.891Z" fill="#773838"/>
<path d="M83.0832 156.893C82.8952 156.893 82.6968 156.867 82.4881 156.814C77.4726 155.482 72.3901 153.575 67.9051 151.894L68.204 151.095C72.6682 152.771 77.7301 154.668 82.7046 155.99C83.8612 156.296 84.634 155.068 85.1801 153.963C85.2548 153.812 85.3037 153.714 85.3527 153.642C89.7011 147.174 79.9585 134.191 79.8605 134.06C76.1408 129.156 71.0762 125.441 64.8087 123.018C63.276 122.426 62.1167 121.116 61.7123 119.515C61.1172 117.167 60.1512 115.14 58.8426 113.493C56.1017 110.035 55.0017 108.933 54.9476 108.88H54.945C54.8343 108.767 52.2144 106.127 52.4539 101.522C52.6472 97.7865 60.8056 93.0489 73.6497 91.9116L73.7244 92.761C61.9055 93.8086 53.4793 98.2447 53.3067 101.568C53.0877 105.796 55.5195 108.246 55.5453 108.272C55.6972 108.406 55.9471 108.686 56.4623 109.271C57.0367 109.925 58.0337 111.098 59.5149 112.965C60.8983 114.71 61.9184 116.845 62.5418 119.309C62.8793 120.642 63.8427 121.733 65.1204 122.228C71.54 124.71 76.7281 128.517 80.5458 133.55C80.9657 134.102 90.7517 147.154 86.0663 154.123C86.0482 154.151 85.9941 154.259 85.9504 154.347C85.5872 155.08 84.6881 156.9 83.0858 156.9L83.0832 156.893Z" fill="#773838"/>
<path d="M82.717 79.3423L81.9932 78.8892C84.7444 74.5101 88.1576 67.3324 88.8068 58.0155C89.4946 48.1424 86.8001 40.1874 84.4172 35.2496L85.1849 34.8789C87.6115 39.9093 90.3576 48.0163 89.6569 58.0747C88.9949 67.5668 85.5171 74.8808 82.7144 79.3423H82.717Z" fill="#773838"/>
<path d="M28.8824 99.6733C30.4409 102.595 34.2844 108.804 41.8631 113.094C46.3532 115.635 50.5831 116.611 53.4476 117.017C55.1427 117.097 58.1206 116.984 61.2505 115.405C67.9792 112.017 69.6227 104.788 69.8519 103.696C69.7978 100.89 69.3419 96.1508 66.9203 90.9125C63.9553 84.4966 59.5786 80.6631 57.2344 78.8765C48.6768 81.9247 40.1192 84.9728 31.5616 88.021L28.8799 99.6705L28.8824 99.6733Z" fill="#F9B0C3"/>
<path d="M54.2283 117.463C53.963 117.463 53.6952 117.457 53.4298 117.445H53.3885C49.2153 116.847 45.2663 115.511 41.6521 113.467C34.6735 109.518 30.6498 103.895 28.5039 99.8761L29.2561 99.475C31.3478 103.396 35.2686 108.877 42.072 112.725C45.5858 114.713 49.4266 116.016 53.4864 116.595C56.1629 116.716 58.7802 116.175 61.0574 115.027C67.2065 111.93 69.0072 105.604 69.4244 103.658C69.3343 99.2739 68.3605 95.047 66.5341 91.0945C63.8241 85.2303 59.8416 81.3995 56.977 79.2216L57.4948 78.5444C60.4366 80.7842 64.5248 84.7154 67.3095 90.7396C69.1926 94.8152 70.1921 99.1734 70.2797 103.695V103.744L70.2694 103.79C69.8521 105.772 67.9793 112.496 61.4413 115.791C59.2542 116.893 56.7735 117.467 54.2258 117.467L54.2283 117.463Z" fill="#773838"/>
<path d="M36.1494 85.7939C37.708 88.7156 41.5514 94.9255 49.1302 99.2149C53.6202 101.756 57.8501 102.731 60.7147 103.138C62.4097 103.218 65.3876 103.104 68.5175 101.527C75.2462 98.1382 76.8897 90.9096 77.1189 89.8176C77.3817 88.0027 77.4616 85.9741 77.1885 83.7934C75.8438 73.1043 67.0054 66.6914 64.5041 65C55.9463 68.0481 47.3887 71.0963 38.8311 74.1444L36.1494 85.7939Z" fill="#F9B0C3"/>
<path d="M61.493 103.583C61.2277 103.583 60.9623 103.578 60.6944 103.565H60.6532C56.48 102.968 52.5309 101.632 48.9167 99.5879C41.9356 95.6381 37.9144 90.0159 35.7686 85.9972L36.5208 85.5956C38.6125 89.516 42.5333 94.997 49.3367 98.8463C52.8503 100.834 56.6912 102.136 60.7511 102.716C63.4276 102.837 66.0449 102.296 68.3221 101.148C74.5201 98.025 76.3001 91.6222 76.6994 89.7324C78.3069 83.3892 74.8627 76.7626 69.1876 75.2437C65.0659 74.1418 60.3492 75.9851 57.4486 79.8313L56.7659 79.3164C59.8753 75.1973 64.9577 73.2305 69.4066 74.4198C75.5247 76.0546 79.2445 83.155 77.5315 89.9262C77.1168 91.893 75.2465 98.6172 68.7085 101.91C66.5215 103.012 64.0407 103.586 61.4904 103.586L61.493 103.583Z" fill="#773838"/>
<path d="M64.5324 74.966C63.5663 74.966 62.3659 74.8013 61.1087 74.2246C60.0345 73.7329 59.0557 72.994 58.2803 72.0853L58.9294 71.5317C59.625 72.3452 60.5009 73.0094 61.4642 73.4497C63.0022 74.1525 64.4474 74.1706 65.3876 74.065L65.4855 74.912C65.2047 74.9429 64.8853 74.966 64.5349 74.966H64.5324Z" fill="#773838"/>
<path d="M83.0831 156.893C82.8951 156.893 82.6967 156.868 82.4881 156.814C77.4699 155.48 72.3873 153.575 67.9051 151.894L67.7144 151.822C67.5985 151.778 67.4825 151.734 67.364 151.69L67.0137 151.556L67.1013 151.193C67.5006 149.533 68.5439 148.086 69.9633 147.229C71.6506 146.207 73.6213 145.895 75.4966 145.712C77.6863 145.496 79.9146 145.43 82.1197 145.514C83.892 145.581 85.3165 145.746 86.6046 146.032L86.8673 146.091L86.9266 146.353C87.6633 149.559 87.3722 152.172 86.061 154.118C86.043 154.146 85.9889 154.255 85.9451 154.342C85.5819 155.076 84.6828 156.896 83.0805 156.896L83.0831 156.893ZM68.0338 151.028L68.2064 151.093C72.6707 152.766 77.73 154.667 82.707 155.987C83.8585 156.293 84.6365 155.065 85.1826 153.959C85.2573 153.807 85.3062 153.709 85.3552 153.636C86.4938 151.943 86.7642 149.647 86.1564 146.802C84.9894 146.562 83.6859 146.42 82.0887 146.361C79.9249 146.279 77.7352 146.343 75.5843 146.557C73.8067 146.732 71.952 147.021 70.409 147.955C69.3064 148.624 68.4382 149.754 68.0364 151.028H68.0338Z" fill="#773838"/>
<path d="M54.3878 128.283L53.7129 127.76C54.7922 126.365 56.0545 125.119 57.461 124.056C58.9629 122.92 60.6192 122.007 62.3813 121.335L62.6852 122.133C60.9979 122.774 59.4136 123.651 57.9762 124.735C56.6289 125.752 55.4233 126.945 54.3878 128.283Z" fill="#773838"/>
<path d="M59.3081 129.791L58.4863 129.562C59.2797 126.704 61.1577 124.133 63.6333 122.503L64.1021 123.216C61.794 124.735 60.0474 127.132 59.3055 129.791H59.3081Z" fill="#773838"/>
<path d="M172.625 166.674C173.076 161.844 173.716 158.32 174.167 153.49C174.509 149.803 173.698 146.093 171.796 142.917C170.91 141.436 169.823 139.876 168.484 138.316C167.42 137.073 166.338 135.996 165.286 135.064C162.492 132.582 163.13 128.057 166.52 126.487C166.569 126.463 166.621 126.44 166.67 126.417C172.575 123.791 178.223 127.607 178.566 127.846C182.052 130.286 185.029 133.445 187.433 136.946C189.468 139.91 192.24 144.163 192.647 147.821C193.286 153.559 193.675 160.063 193.544 167.199C193.379 176.081 192.443 184.008 191.243 190.755C185.099 183.163 178.768 174.265 172.624 166.674H172.625Z" fill="#F9B0C3"/>
<path d="M191.64 190.85L190.852 190.659C191.442 188.222 191.73 185.657 192.008 183.175C192.158 181.85 192.313 180.478 192.511 179.131C192.825 175.792 192.982 172.427 193.148 168.864L193.196 167.801C193.196 167.25 193.201 166.683 193.206 166.118C193.247 159.828 193.283 153.886 192.027 147.751C191.05 142.548 188.054 137.469 182.866 132.215C176.933 126.206 171.478 124.383 166.652 126.798C164.187 128.031 163.878 130.381 163.914 131.692C164.143 132.961 164.584 133.826 165.302 134.416L165.323 134.434C168.296 137.214 170.697 140.267 172.662 143.772C174.268 146.634 174.949 149.886 174.635 153.178C174.378 155.882 174.174 157.944 173.976 159.867L173.17 159.784C173.368 157.864 173.571 155.801 173.829 153.104C174.128 149.975 173.482 146.886 171.957 144.17C170.034 140.744 167.688 137.757 164.782 135.036C163.919 134.323 163.373 133.268 163.115 131.808L163.111 131.751C163.026 129.199 164.187 127.132 166.295 126.077C171.397 123.523 177.327 125.451 183.446 131.648C188.749 137.021 191.818 142.237 192.825 147.596C194.097 153.809 194.061 159.789 194.02 166.122C194.018 166.686 194.012 167.253 194.011 167.822L193.961 168.9C193.794 172.471 193.637 175.846 193.317 179.227C193.119 180.58 192.965 181.945 192.815 183.263C192.534 185.768 192.24 188.36 191.64 190.845V190.85Z" fill="#773838"/>
<path d="M205.012 183.276C207.516 178.006 210.339 170.687 211.988 161.638C213.173 155.129 213.47 149.27 213.369 144.384C213.32 141.928 212.756 139.513 211.71 137.291C209.925 133.502 207.562 129.238 204.43 124.818C202.006 121.397 199.53 118.462 197.189 115.98C194.128 112.734 188.773 113.215 186.456 117.028C186.421 117.085 186.388 117.144 186.354 117.202C184.396 120.65 186.168 124.264 186.312 124.542C187.67 127.349 189.028 130.188 190.38 133.064C190.903 134.173 191.42 135.281 191.934 136.386C193.42 139.583 194.02 143.123 193.67 146.631C193.147 151.883 192.261 157.666 190.821 163.837C189.514 169.436 187.95 174.507 186.322 179.01C192.551 180.434 198.78 181.855 205.007 183.279L205.012 183.276Z" fill="#F9B0C3"/>
<path d="M205.239 183.745L185.79 179.301L185.947 178.872C187.732 173.938 189.242 168.846 190.432 163.743C191.743 158.118 192.699 152.349 193.271 146.59C193.613 143.15 193.023 139.683 191.57 136.555C191.058 135.45 190.54 134.346 190.017 133.236C188.685 130.405 187.315 127.54 185.95 124.72C185.743 124.316 183.956 120.606 186.004 117.002C186.037 116.94 186.075 116.878 186.112 116.817C187.263 114.92 189.2 113.694 191.429 113.46C193.709 113.217 195.914 114.036 197.485 115.702C200.107 118.482 202.555 121.471 204.762 124.584C207.555 128.525 210.017 132.742 212.078 137.119C213.153 139.403 213.724 141.843 213.776 144.377C213.895 150.179 213.425 156.01 212.388 161.712C211.02 169.227 208.662 176.542 205.381 183.453L205.241 183.747L205.239 183.745ZM186.864 178.714L204.786 182.808C207.964 176.049 210.252 168.903 211.589 161.563C212.617 155.914 213.08 150.136 212.965 144.389C212.916 141.971 212.37 139.639 211.345 137.461C209.304 133.128 206.867 128.95 204.1 125.049C201.915 121.965 199.491 119.007 196.895 116.255C195.499 114.775 193.539 114.049 191.514 114.263C189.541 114.471 187.825 115.555 186.804 117.234C186.771 117.287 186.74 117.342 186.709 117.396C184.839 120.686 186.599 124.206 186.676 124.352C188.047 127.181 189.417 130.05 190.749 132.887C191.271 133.996 191.789 135.103 192.302 136.207C193.817 139.464 194.43 143.081 194.075 146.662C193.497 152.455 192.536 158.261 191.218 163.919C190.056 168.906 188.59 173.88 186.861 178.709L186.864 178.714Z" fill="#773838"/>
<path d="M218.212 282.17H159.403L167.093 228.307H210.522L218.212 282.17Z" fill="#F9B0C3"/>
<path d="M228.367 133.501C228.125 135.134 227.667 143.04 226.96 158.865C226.698 164.781 226.804 164.691 225.387 187.084C224.995 193.285 224.462 200.818 221.131 210.048C217.203 220.938 211.453 228.628 207.47 233.166H169.479C166.465 230.373 163.111 226.812 159.857 222.379C159.316 221.64 158.795 220.907 158.298 220.176C153.541 213.186 150.336 205.267 148.744 196.964C147.742 191.741 146.287 187.614 144.965 184.533C143.345 180.76 140.647 175.594 139.321 173.009C138.813 172.023 138.506 171.41 138.533 171.398C138.587 171.369 138.862 171.819 138.584 171.351C135.215 165.7 135.179 162.845 135.179 162.845C135.364 160.719 136.969 158.5 138.985 157.513C139.133 157.441 139.282 157.377 139.432 157.318C144.061 155.531 149.568 160.701 150.493 161.571C156.22 166.943 158.628 175.64 162.407 178.58C163.716 179.597 165.164 180.338 165.164 180.338C165.174 180.344 165.185 180.349 165.197 180.357C167.235 181.384 169.726 180.424 170.555 178.299C172.608 173.027 172.658 168.414 172.622 166.674C183.118 167.382 193.613 168.09 204.108 168.8C205.049 161.318 208.325 137.543 215.173 126.7C216.429 124.71 218.959 120.701 222.406 120.745C224.795 120.779 226.888 122.748 227.937 124.573C229.488 127.269 228.887 129.972 228.362 133.504L228.367 133.501Z" fill="#F9B0C3"/>
<path d="M162.165 178.897C161.908 178.696 161.658 178.475 161.401 178.215C159.576 176.379 158.319 174.018 157.103 171.733C156.704 170.983 156.292 170.208 155.872 169.482C154.406 166.942 152.358 163.703 149.501 161.208C146.405 158.505 143.698 157.248 141.243 157.354C139.473 157.431 137.741 158.476 136.613 160.149C136.096 160.917 135.5 162.06 135.614 163.144C135.74 164.336 136.557 166.962 139.735 172.701C139.829 172.867 139.89 172.979 139.911 173.022L139.189 173.391C139.168 173.349 139.112 173.248 139.027 173.092C136.42 168.388 135 165.07 134.808 163.229C134.668 161.903 135.346 160.577 135.941 159.697C137.213 157.812 139.182 156.636 141.207 156.546C143.885 156.43 146.773 157.753 150.035 160.6C152.982 163.175 155.078 166.483 156.572 169.08C156.998 169.819 157.413 170.6 157.817 171.354C159.007 173.586 160.236 175.895 161.975 177.646C162.209 177.88 162.433 178.084 162.663 178.261L162.165 178.9V178.897Z" fill="#773838"/>
<path d="M204.515 168.849L203.711 168.748C205.153 157.259 208.518 136.488 214.834 126.484C216.097 124.486 218.712 120.341 222.352 120.341C222.372 120.341 222.395 120.341 222.416 120.341C225.064 120.374 227.238 122.535 228.295 124.373L227.591 124.777C226.566 122.993 224.564 121.18 222.405 121.152C222.387 121.152 222.37 121.152 222.354 121.152C219.16 121.152 216.705 125.042 215.52 126.917C209.286 136.789 205.949 157.426 204.515 168.849Z" fill="#773838"/>
<path d="M187.288 236.792C184.509 236.792 181.732 236.532 178.979 236.013L179.128 235.217C184.061 236.148 189.074 236.229 194.033 235.461C198.914 234.704 203.6 233.144 207.961 230.822L208.342 231.538C203.902 233.901 199.128 235.492 194.159 236.262C191.877 236.617 189.581 236.792 187.288 236.792Z" fill="#773838"/>
<path d="M174.329 175.607L174.053 174.845C180.315 172.587 186.812 170.886 193.363 169.784C202.014 168.329 210.855 167.905 219.636 168.517L219.58 169.325C210.86 168.715 202.086 169.138 193.497 170.582C186.995 171.676 180.544 173.365 174.329 175.607Z" fill="#773838"/>
<path d="M186.56 221.065L185.795 220.797C186.859 217.765 188.356 211.634 186.419 204.65C183.467 194.007 174.726 188.884 172.119 187.569L172.485 186.845C175.169 188.199 184.16 193.469 187.2 204.434C189.196 211.632 187.655 217.945 186.56 221.065Z" fill="#773838"/>
<path d="M191.62 203.046L190.826 202.886C191.491 199.612 192.673 196.497 194.343 193.624C196.45 189.993 199.245 186.879 202.653 184.36L203.135 185.011C199.817 187.463 197.097 190.498 195.043 194.03C193.42 196.826 192.269 199.862 191.62 203.048V203.046Z" fill="#773838"/>
<path d="M139.57 173.328L139.079 172.684C139.417 172.424 139.713 172.147 139.981 171.832C142.592 168.774 142.059 163.105 138.651 157.727L139.336 157.294C142.937 162.974 143.445 169.029 140.598 172.36C140.297 172.713 139.952 173.04 139.573 173.328H139.57Z" fill="#773838"/>
<path d="M161.032 166.715C169.783 164.651 175.203 155.887 173.137 147.142C171.072 138.397 162.304 132.98 153.553 135.044C144.801 137.108 139.381 145.871 141.447 154.617C143.512 163.363 152.28 168.779 161.032 166.715Z" fill="#FFC212"/>
<path d="M157.296 167.304C148.229 167.304 140.851 159.931 140.851 150.872C140.851 141.812 148.229 134.436 157.296 134.436C166.364 134.436 173.741 141.81 173.741 150.872C173.741 159.934 166.364 167.304 157.296 167.304ZM157.296 134.763C148.409 134.763 141.177 141.99 141.177 150.872C141.177 159.754 148.409 166.98 157.296 166.98C166.183 166.98 173.415 159.754 173.415 150.872C173.415 141.99 166.183 134.763 157.296 134.763Z" fill="#3D3B3B"/>
<path d="M157.297 165.525C165.395 165.525 171.96 158.964 171.96 150.872C171.96 142.778 165.395 136.218 157.297 136.218C149.199 136.218 142.634 142.778 142.634 150.872C142.634 158.964 149.199 165.525 157.297 165.525Z" fill="#F7941D"/>
<path d="M157.297 165.688C149.12 165.688 142.472 159.04 142.472 150.872C142.472 142.703 149.123 136.053 157.297 136.053C165.47 136.053 172.122 142.701 172.122 150.872C172.122 159.043 165.47 165.688 157.297 165.688ZM157.297 136.38C149.3 136.38 142.796 142.881 142.796 150.872C142.796 158.863 149.3 165.363 157.297 165.363C165.292 165.363 171.797 158.863 171.797 150.872C171.797 142.881 165.292 136.38 157.297 136.38Z" fill="#3D3B3B"/>
<path d="M156.819 158.809H155.184V156.36C154.184 156.252 153.193 156.301 152.188 156.286C152.239 155.969 152.291 155.667 152.342 155.367C152.386 155.109 152.433 154.852 152.466 154.592C152.479 154.488 152.528 154.46 152.623 154.463C152.961 154.466 153.296 154.468 153.633 154.463C154.014 154.458 154.127 154.347 154.127 153.971C154.127 151.757 154.127 149.541 154.127 147.327C154.127 146.881 153.865 146.603 153.416 146.57C153.226 146.554 153.032 146.559 152.839 146.556C152.649 146.556 152.456 146.556 152.255 146.556V145.01H155.171V142.497H156.812V144.943H157.984V142.494H159.462V144.989C159.852 145.05 160.23 145.095 160.602 145.177C161.263 145.321 161.895 145.547 162.399 146.027C162.837 146.439 163.033 146.964 163.093 147.545C163.136 147.967 163.115 148.387 162.978 148.794C162.811 149.298 162.484 149.672 162.041 149.955C161.974 149.996 161.907 150.035 161.858 150.063C162.18 150.205 162.526 150.323 162.835 150.501C163.527 150.897 163.898 151.517 163.968 152.308C164.033 153.034 163.957 153.742 163.654 154.414C163.322 155.148 162.747 155.611 162.008 155.894C161.261 156.183 160.483 156.306 159.687 156.339C159.635 156.339 159.584 156.345 159.532 156.35C159.517 156.35 159.501 156.36 159.471 156.368V158.806H157.992V156.402H156.819V158.809ZM156.825 151.239V154.543C157.355 154.543 157.876 154.565 158.391 154.537C159.03 154.501 159.661 154.406 160.24 154.1C161.034 153.68 161.23 152.696 160.655 152.006C160.359 151.651 159.947 151.517 159.529 151.407C158.646 151.175 157.745 151.23 156.827 151.239H156.825ZM156.822 149.736C156.933 149.736 157.028 149.736 157.126 149.736C157.868 149.746 158.612 149.739 159.321 149.481C159.72 149.337 160.071 149.108 160.215 148.675C160.452 147.972 160.117 147.264 159.426 146.984C158.971 146.796 158.492 146.736 158.007 146.717C157.615 146.698 157.221 146.714 156.822 146.714V149.739V149.736Z" fill="#3D3B3B"/>
<path d="M156.011 158.716H154.375V156.268C153.376 156.159 152.384 156.208 151.379 156.193C151.431 155.877 151.482 155.575 151.534 155.274C151.577 155.016 151.623 154.759 151.657 154.499C151.67 154.396 151.719 154.368 151.814 154.37C152.151 154.373 152.486 154.375 152.824 154.37C153.205 154.365 153.319 154.254 153.319 153.878C153.319 151.664 153.319 149.448 153.319 147.234C153.319 146.788 153.056 146.51 152.608 146.477C152.417 146.461 152.224 146.467 152.031 146.464C151.84 146.464 151.647 146.464 151.446 146.464V144.916H154.362V142.405H156.003V144.85H157.175V142.402H158.654V144.897C159.042 144.958 159.422 145.002 159.792 145.084C160.454 145.228 161.085 145.455 161.59 145.933C162.029 146.345 162.224 146.871 162.283 147.453C162.327 147.875 162.307 148.295 162.17 148.701C162.002 149.206 161.675 149.579 161.233 149.862C161.166 149.904 161.099 149.942 161.05 149.97C161.371 150.112 161.716 150.231 162.026 150.408C162.719 150.805 163.09 151.425 163.16 152.216C163.224 152.941 163.149 153.649 162.844 154.321C162.512 155.055 161.938 155.518 161.199 155.801C160.452 156.09 159.673 156.213 158.877 156.247C158.826 156.247 158.775 156.252 158.724 156.257C158.708 156.257 158.693 156.268 158.661 156.275V158.714H157.182V156.309H156.011V158.716ZM156.016 151.147V154.45C156.547 154.45 157.066 154.473 157.582 154.445C158.221 154.409 158.852 154.314 159.432 154.008C160.225 153.588 160.42 152.604 159.846 151.914C159.55 151.559 159.138 151.425 158.721 151.315C157.837 151.083 156.935 151.136 156.019 151.147H156.016ZM156.013 149.643C156.124 149.643 156.219 149.643 156.318 149.643C157.059 149.654 157.804 149.646 158.512 149.389C158.911 149.245 159.261 149.016 159.406 148.583C159.643 147.88 159.308 147.172 158.618 146.891C158.162 146.704 157.682 146.644 157.199 146.623C156.807 146.606 156.413 146.622 156.013 146.622V149.646V149.643Z" fill="#FFC212"/>
<path d="M156.175 158.881H154.212V156.417C153.563 156.357 152.904 156.36 152.265 156.36C151.971 156.36 151.675 156.36 151.379 156.357H151.188L151.404 155.06C151.437 154.867 151.469 154.674 151.497 154.478C151.513 154.354 151.582 154.207 151.811 154.207H151.817C152.151 154.21 152.486 154.213 152.821 154.207C153.115 154.203 153.153 154.164 153.153 153.881C153.153 151.667 153.153 149.45 153.153 147.236C153.153 146.881 152.955 146.67 152.595 146.641C152.45 146.631 152.303 146.631 152.156 146.628H152.028C151.897 146.628 151.765 146.628 151.629 146.628H151.281V144.757H154.197V142.244H156.165V144.69H157.01V142.241H158.816V144.762C158.891 144.772 158.965 144.785 159.04 144.796C159.3 144.834 159.568 144.873 159.828 144.93C160.395 145.053 161.118 145.266 161.703 145.818C162.133 146.225 162.376 146.754 162.448 147.44C162.499 147.931 162.461 148.362 162.327 148.757C162.167 149.239 161.858 149.638 161.41 149.947C161.413 149.947 161.417 149.95 161.42 149.952C161.649 150.048 161.889 150.143 162.113 150.271C162.842 150.689 163.252 151.34 163.326 152.207C163.398 153.031 163.291 153.747 162.996 154.396C162.667 155.127 162.097 155.639 161.263 155.96C160.57 156.229 159.792 156.378 158.891 156.417C158.87 156.417 158.852 156.417 158.831 156.42V158.883H157.025V156.478H156.178V158.885L156.175 158.881ZM154.54 158.553H155.848V156.146H157.348V158.551H158.499V156.154L158.615 156.118C158.656 156.105 158.679 156.097 158.71 156.092C158.764 156.087 158.818 156.085 158.873 156.082C159.74 156.043 160.483 155.902 161.142 155.647C161.894 155.356 162.404 154.9 162.698 154.252C162.968 153.657 163.066 152.992 162.999 152.225C162.932 151.471 162.579 150.907 161.948 150.545C161.745 150.429 161.516 150.336 161.294 150.246C161.191 150.204 161.085 150.161 160.984 150.117L160.694 149.988L161.016 149.8C161.054 149.777 161.101 149.751 161.147 149.723C161.582 149.445 161.868 149.092 162.017 148.649C162.136 148.299 162.17 147.913 162.123 147.468C162.062 146.863 161.85 146.399 161.48 146.049C160.951 145.553 160.282 145.357 159.756 145.241C159.507 145.187 159.257 145.148 158.991 145.11C158.87 145.092 158.749 145.074 158.625 145.053L158.489 145.03V142.558H157.337V145.007H155.84V142.561H154.526V145.074H151.61V146.294H151.631C151.768 146.294 151.902 146.294 152.035 146.294H152.162C152.317 146.294 152.468 146.294 152.623 146.307C153.153 146.345 153.486 146.698 153.486 147.226C153.486 149.44 153.486 151.657 153.486 153.871C153.486 154.334 153.303 154.516 152.832 154.524C152.497 154.53 152.159 154.53 151.824 154.524C151.796 154.728 151.763 154.918 151.732 155.107L151.577 156.026C151.809 156.026 152.038 156.026 152.268 156.026C152.963 156.026 153.681 156.02 154.395 156.097L154.542 156.113V158.543L154.54 158.553ZM156.982 154.622C156.819 154.622 156.66 154.622 156.502 154.617C156.34 154.617 156.181 154.612 156.016 154.612H155.854V150.985L156.361 150.977C157.151 150.961 157.965 150.946 158.759 151.154C159.191 151.267 159.64 151.412 159.97 151.806C160.276 152.171 160.4 152.64 160.31 153.09C160.22 153.541 159.928 153.925 159.507 154.149C158.849 154.496 158.138 154.576 157.59 154.604C157.386 154.614 157.182 154.619 156.979 154.619L156.982 154.622ZM156.181 154.29C156.288 154.29 156.4 154.29 156.507 154.293C156.876 154.298 157.224 154.303 157.574 154.283C158.089 154.254 158.757 154.179 159.357 153.862C159.691 153.685 159.923 153.382 159.993 153.031C160.062 152.678 159.965 152.31 159.72 152.02C159.452 151.697 159.074 151.579 158.676 151.474C157.927 151.278 157.169 151.291 156.366 151.306H156.178V154.29H156.181ZM156.654 149.81C156.541 149.81 156.428 149.81 156.315 149.808C156.25 149.808 156.186 149.808 156.116 149.808H155.848V146.458H156.01C156.134 146.458 156.258 146.458 156.379 146.456C156.65 146.454 156.928 146.451 157.203 146.464C157.615 146.482 158.156 146.531 158.676 146.744C159.449 147.061 159.821 147.859 159.557 148.639C159.416 149.059 159.092 149.355 158.563 149.548C157.943 149.772 157.303 149.813 156.65 149.813L156.654 149.81ZM156.209 149.481C156.248 149.481 156.284 149.481 156.319 149.481C157.062 149.492 157.78 149.481 158.455 149.236C158.888 149.08 159.142 148.855 159.251 148.531C159.457 147.919 159.166 147.293 158.556 147.043C158.081 146.85 157.577 146.803 157.19 146.786C156.925 146.772 156.662 146.775 156.384 146.78C156.315 146.78 156.245 146.78 156.175 146.78V149.478H156.206L156.209 149.481Z" fill="#3D3B3B"/>
<path d="M142.04 148.609C141.94 149.36 141.889 150.115 141.873 150.872C141.871 151.052 141.587 151.052 141.592 150.872C141.608 150.088 141.664 149.309 141.77 148.534C141.793 148.356 142.066 148.43 142.04 148.609Z" fill="white"/>
<path d="M144.032 143.001C143.375 144.103 142.883 145.275 142.509 146.5C142.457 146.672 142.185 146.598 142.238 146.425C142.62 145.175 143.119 143.982 143.79 142.857C143.883 142.703 144.125 142.845 144.032 142.999V143.001Z" fill="white"/>
<path d="M157.297 135.458C152.863 135.458 148.589 137.389 145.678 140.733C145.56 140.87 145.361 140.671 145.48 140.535C148.437 137.135 152.794 135.178 157.297 135.178C157.477 135.178 157.477 135.458 157.297 135.458Z" fill="white"/>
<path d="M157.297 136.218C158.481 136.218 159.633 136.359 160.736 136.624C159.808 136.441 158.847 136.344 157.865 136.344C149.767 136.344 143.202 142.903 143.202 150.997C143.202 157.907 147.986 163.7 154.426 165.247C147.703 163.913 142.634 157.984 142.634 150.874C142.634 142.78 149.197 136.22 157.297 136.22V136.218Z" fill="#3D3B3B"/>
<path d="M121.476 251.505L105.593 249.551L96.8698 237.816L94.3842 242.296L93.6136 251.811C52.858 249.061 18.8386 217.846 11.0874 178.022L6.76471 178.854L2.93413 175.589L0.448242 180.069C9.08836 224.642 47.1984 259.496 92.7407 262.603L91.9701 272.118C101.679 268.166 111.136 262.693 118.991 255.982L121.476 251.502V251.505Z" fill="#33725D"/>
<path d="M91.4884 272.777L92.2789 263C81.2229 262.196 70.4163 259.524 60.1507 255.057C50.0681 250.67 40.7556 244.661 32.4711 237.206C15.768 222.169 4.2479 201.908 0.0283365 180.152L0 179.999L2.41118 175.656C2.51165 175.475 2.68424 175.352 2.88518 175.316C3.08611 175.28 3.29219 175.334 3.44933 175.468L6.88578 178.398L11.4248 177.526L11.5072 177.942C19.2405 217.674 53.5715 248.483 93.2243 251.358L93.9695 242.169L96.8209 237.031L105.829 249.149L122.159 251.16L119.327 256.26L119.269 256.309C111.72 262.761 102.336 268.365 92.1322 272.515L91.4911 272.777H91.4884ZM0.896465 180.141C9.59833 224.645 48.2107 259.138 92.7688 262.178L93.1989 262.206L92.4491 271.46C102.295 267.381 111.339 261.944 118.653 255.709L120.796 251.849L105.361 249.95L105.252 249.803L96.9242 238.602L94.8035 242.422L94.0075 252.267L93.5883 252.239C83.5567 251.561 73.7523 249.164 64.4476 245.115C55.4314 241.191 47.1005 235.816 39.6917 229.137C24.8718 215.787 14.6088 197.825 10.7524 178.522L6.6462 179.312L3.05777 176.253L0.899041 180.141H0.896465Z" fill="#3D3B3B"/>
<path d="M2.93652 175.591C11.5766 220.165 49.6867 255.018 95.2289 258.126L94.4583 267.641C104.167 263.689 113.624 258.216 121.479 251.505C112.406 248.266 104.283 243.701 96.8724 237.816L96.1018 247.331C55.3462 244.581 21.327 213.367 13.5756 173.542L2.93652 175.589V175.591Z" fill="#67B9A2"/>
<path d="M93.9763 268.298L94.7677 258.52C83.7109 257.717 72.9043 255.045 62.6388 250.578C52.5561 246.191 43.2437 240.182 34.9591 232.727C18.2561 217.692 6.73595 197.428 2.51895 175.674L2.43652 175.254L13.9129 173.046L13.9953 173.462C21.7286 213.191 56.0595 244.003 95.7131 246.878L96.5135 236.987L97.1402 237.484C104.654 243.451 112.663 247.906 121.622 251.106L122.315 251.353L121.757 251.832C114.209 258.281 104.824 263.885 94.6201 268.038L93.979 268.3L93.9763 268.298ZM3.43603 175.929C12.2358 220.308 50.7838 254.666 95.2567 257.699L95.6868 257.727L94.9371 266.98C104.559 262.992 113.415 257.709 120.638 251.654C112.117 248.534 104.446 244.27 97.2325 238.642L96.4936 247.784L96.0735 247.756C86.0422 247.079 76.2378 244.682 66.9331 240.633C57.9169 236.709 49.5859 231.334 42.1772 224.656C27.3573 211.304 17.0943 193.343 13.2379 174.039L3.43603 175.926V175.929Z" fill="#3D3B3B"/>
<path d="M94.8527 257.929L92.3652 262.409L93.1105 262.822L95.5979 258.342L94.8527 257.929Z" fill="#3D3B3B"/>
<path opacity="0.5" d="M76.1454 246.93C79.5844 247.873 83.0698 248.614 86.5964 249.15C87.9385 249.353 88.5181 247.299 87.1631 247.092C83.6365 246.557 80.1537 245.816 76.7121 244.874C75.3854 244.511 74.8187 246.567 76.1454 246.93Z" fill="white"/>
<path opacity="0.5" d="M29.6245 216.495C39.349 228.71 52.4329 237.866 66.8175 243.79C68.0849 244.312 68.6387 242.249 67.3842 241.732C53.3397 235.948 40.6165 226.898 31.1315 214.986C30.2763 213.912 28.777 215.432 29.6219 216.495H29.6245Z" fill="white"/>
<path opacity="0.5" d="M13.826 187.885C15.8945 193.919 18.5634 199.722 21.7911 205.224C22.4841 206.408 24.3311 205.335 23.633 204.147C20.4954 198.803 17.891 193.18 15.8817 187.319C15.4386 186.028 13.3778 186.583 13.8235 187.885H13.826Z" fill="white"/>
<path d="M94.0812 267.444L91.5938 271.924L92.339 272.338L94.8273 267.858L94.0812 267.444Z" fill="#3D3B3B"/>
<path d="M224.981 102.157C214.515 60.0595 177.61 27.732 133.828 24.7457L134.599 15.2305C126.901 18.3636 119.366 22.4544 112.661 27.3588L110.724 27.5003L107.578 31.3672C116.651 34.6059 124.773 39.1703 132.184 45.0556L135.33 41.1887L132.908 36.1299L132.957 35.5378C173.713 38.2873 207.732 69.5026 215.483 109.326L226.122 107.28L229.268 103.414L224.984 102.157H224.981Z" fill="#33725D"/>
<path d="M215.145 109.826L215.062 109.409C207.328 69.6777 172.997 38.8691 133.344 35.9935L133.339 36.0501L135.828 41.248L132.247 45.6502L131.917 45.3877C124.403 39.4201 116.394 34.9663 107.435 31.7663L106.865 31.5629L110.508 27.0859L112.504 26.9391C118.967 22.2252 126.548 18.0418 134.434 14.8314L135.076 14.5688L134.285 24.3467C144.909 25.119 155.318 27.6213 165.231 31.7843C174.973 35.8776 184.038 41.4874 192.171 48.4564C200.252 55.3817 207.205 63.468 212.839 72.4915C218.535 81.618 222.738 91.4808 225.332 101.812L229.998 103.182L226.35 107.667L215.142 109.824L215.145 109.826ZM132.564 35.0847L132.984 35.113C143.015 35.7901 152.819 38.1869 162.124 42.2365C171.14 46.16 179.471 51.5355 186.88 58.2136C201.699 71.5648 211.963 89.5268 215.819 108.83L225.889 106.892L228.532 103.643L224.629 102.497L224.57 102.26C214.014 59.7969 176.689 28.0976 133.801 25.1705L133.37 25.1421L134.119 15.8895C126.489 19.0535 119.168 23.1289 112.914 27.7037L112.816 27.7758L110.94 27.9123L108.29 31.169C116.982 34.3355 124.784 38.6889 132.118 44.4582L134.828 41.1269L132.474 36.2071L132.564 35.0821V35.0847Z" fill="#3D3B3B"/>
<path d="M229.266 103.414C220.627 58.8393 182.516 23.9863 136.974 20.8789L137.744 11.3638C128.035 15.3155 118.578 20.7888 110.725 27.5004C119.797 30.7391 127.919 35.3036 135.331 41.1888L136.101 31.6736C176.857 34.4231 210.876 65.6384 218.627 105.463L229.266 103.416V103.414Z" fill="#67B9A2"/>
<path d="M218.289 105.96L218.207 105.542C210.474 65.8106 176.143 35.0021 136.49 32.1264L135.688 42.0201L135.063 41.5232C127.548 35.5557 119.539 31.1019 110.579 27.9018L109.887 27.6546L110.445 27.1758C117.994 20.7268 127.378 15.1222 137.582 10.9696L138.223 10.707L137.432 20.4847C148.489 21.288 159.295 23.9602 169.561 28.427C179.644 32.8138 188.956 38.8226 197.241 46.2783C213.944 61.3131 225.464 81.5766 229.681 103.331L229.763 103.75L218.286 105.96H218.289ZM135.709 31.2177L136.128 31.246C146.16 31.9231 155.965 34.3199 165.269 38.3695C174.285 42.293 182.617 47.6685 190.025 54.3466C204.845 67.6977 215.108 85.6597 218.962 104.963L228.763 103.076C219.963 58.6974 181.416 24.3387 136.943 21.306L136.512 21.2777L137.262 12.0251C127.641 16.0129 118.782 21.2957 111.561 27.3508C120.086 30.4711 127.754 34.737 134.967 40.3622L135.706 31.2203L135.709 31.2177Z" fill="#3D3B3B"/>
<path opacity="0.5" d="M158.381 27.1424C154.942 26.2002 151.456 25.4587 147.93 24.9233C146.588 24.7199 146.008 26.7743 147.363 26.9803C150.889 27.5158 154.373 28.2572 157.814 29.1995C159.141 29.5625 159.707 27.5055 158.381 27.1424Z" fill="white"/>
<path opacity="0.5" d="M204.903 57.5773C195.179 45.3615 182.095 36.2067 167.71 30.2829C166.444 29.7602 165.889 31.8224 167.144 32.3399C181.189 38.1246 193.911 47.1739 203.397 59.0859C204.252 60.1594 205.751 58.6405 204.906 57.5773H204.903Z" fill="white"/>
<path opacity="0.5" d="M220.703 86.1882C218.634 80.1538 215.965 74.351 212.738 68.8493C212.044 67.6651 210.198 68.7386 210.896 69.9254C214.031 75.27 216.638 80.8926 218.647 86.7546C219.09 88.0444 221.151 87.491 220.706 86.1882H220.703Z" fill="white"/>
<path d="M218.29 105.182L215.146 109.046L215.808 109.584L218.952 105.719L218.29 105.182Z" fill="#3D3B3B"/>
</g>
</g>
<defs>
<clipPath id="clip0_134_834">
<rect width="230" height="284.33" fill="white" transform="translate(0 -2.16016)"/>
</clipPath>
</defs>
</svg>
