<svg width="450" height="450" viewBox="0 0 450 450" fill="none" xmlns="http://www.w3.org/2000/svg">
<path d="M225 225V22.0498C278.826 22.0498 330.447 43.432 368.507 81.4925C406.568 119.553 427.95 171.174 427.95 225C427.95 278.825 406.568 330.447 368.507 368.507C330.447 406.568 278.826 427.95 225 427.95V225Z" fill="#79CC9E" stroke="#0F2C23" stroke-width="4.1"/>
<path d="M225 225V427.95C171.174 427.95 119.553 406.568 81.4925 368.507C43.432 330.447 22.0498 278.826 22.0498 225H225Z" fill="#FF8717" stroke="#0F2C23" stroke-width="4.1"/>
<path d="M225 225H22.0498C22.0498 192.972 29.6298 161.399 44.17 132.863C58.7103 104.326 79.7979 79.6354 105.709 60.8101L225 225Z" fill="#E2FEA5" stroke="#0F2C23" stroke-width="4.1"/>
<path d="M225 225L105.709 60.8098C140.383 35.618 182.141 22.0498 225 22.0498V225Z" fill="#F8FFE8" stroke="#0F2C23" stroke-width="4.1"/>
<path d="M225 286.5C258.966 286.5 286.5 258.966 286.5 225C286.5 191.034 258.966 163.5 225 163.5C191.034 163.5 163.5 191.034 163.5 225C163.5 258.966 191.034 286.5 225 286.5Z" fill="#0F2C23"/>
<g clip-path="url(#clip0_134_538)">
<rect x="388.31" y="207.82" width="61" height="34.36" rx="17.18" fill="#F8FFE8"/>
<path d="M405.069 230.635C404.276 230.635 403.585 230.517 402.995 230.281C402.405 230.045 401.944 229.713 401.612 229.284C401.29 228.855 401.13 228.335 401.13 227.724L403.043 227.322C403.097 227.858 403.295 228.271 403.638 228.56C403.992 228.839 404.464 228.978 405.053 228.978C405.718 228.978 406.227 228.802 406.581 228.448C406.935 228.083 407.112 227.537 407.112 226.808C407.112 226.497 407.08 226.213 407.015 225.955C406.951 225.687 406.844 225.457 406.694 225.264C406.554 225.071 406.367 224.921 406.131 224.814C405.906 224.706 405.627 224.653 405.295 224.653C405.048 224.653 404.828 224.685 404.635 224.749C404.442 224.803 404.271 224.889 404.121 225.007C403.971 225.114 403.837 225.248 403.719 225.409C403.611 225.559 403.51 225.725 403.413 225.907H401.323L401.709 219.796H408.736V221.501H403.413L403.172 224.798H403.349C403.574 224.229 403.933 223.811 404.426 223.543C404.919 223.265 405.461 223.125 406.05 223.125C406.758 223.125 407.342 223.275 407.803 223.575C408.275 223.876 408.623 224.299 408.848 224.846C409.084 225.393 409.202 226.036 409.202 226.775C409.202 227.676 409.025 228.41 408.672 228.978C408.328 229.547 407.846 229.965 407.224 230.233C406.602 230.501 405.884 230.635 405.069 230.635ZM415.418 230.635C414.743 230.635 414.131 230.512 413.585 230.265C413.038 230.008 412.572 229.643 412.186 229.171C411.8 228.7 411.5 228.126 411.285 227.451C411.081 226.775 410.98 226.009 410.98 225.151C410.98 223.951 411.173 222.938 411.559 222.112C411.944 221.287 412.475 220.659 413.151 220.231C413.826 219.802 414.598 219.587 415.466 219.587C416.367 219.587 417.144 219.807 417.798 220.247C418.463 220.686 418.972 221.319 419.326 222.144C419.69 222.97 419.872 223.961 419.872 225.119C419.872 225.977 419.765 226.749 419.551 227.435C419.347 228.121 419.047 228.705 418.65 229.188C418.253 229.659 417.782 230.018 417.235 230.265C416.688 230.512 416.083 230.635 415.418 230.635ZM415.45 228.995C415.761 228.995 416.061 228.92 416.351 228.769C416.64 228.619 416.897 228.394 417.122 228.094C417.348 227.783 417.524 227.387 417.653 226.904C417.782 226.422 417.846 225.837 417.846 225.151C417.846 224.326 417.744 223.618 417.541 223.029C417.337 222.439 417.053 221.989 416.688 221.678C416.335 221.367 415.916 221.212 415.434 221.212C415.037 221.212 414.651 221.34 414.276 221.597C413.912 221.855 413.612 222.268 413.376 222.836C413.14 223.393 413.022 224.149 413.022 225.103C413.022 225.778 413.081 226.357 413.199 226.84C413.327 227.322 413.499 227.724 413.713 228.046C413.938 228.357 414.196 228.593 414.485 228.753C414.785 228.914 415.107 228.995 415.45 228.995ZM424.313 225.393C423.745 225.393 423.23 225.285 422.769 225.071C422.319 224.846 421.96 224.508 421.692 224.058C421.435 223.597 421.306 223.029 421.306 222.353C421.306 221.785 421.392 221.303 421.563 220.906C421.735 220.509 421.965 220.193 422.255 219.957C422.555 219.721 422.887 219.55 423.252 219.443C423.616 219.325 423.986 219.266 424.361 219.266C424.94 219.266 425.455 219.378 425.905 219.603C426.366 219.829 426.73 220.166 426.998 220.617C427.266 221.067 427.4 221.635 427.4 222.321C427.4 223.072 427.25 223.677 426.95 224.138C426.65 224.588 426.264 224.91 425.792 225.103C425.321 225.296 424.828 225.393 424.313 225.393ZM424.393 223.849C424.608 223.849 424.817 223.801 425.021 223.704C425.224 223.608 425.39 223.457 425.519 223.254C425.648 223.039 425.712 222.75 425.712 222.385C425.712 221.999 425.642 221.694 425.503 221.469C425.364 221.233 425.187 221.067 424.972 220.97C424.758 220.863 424.538 220.81 424.313 220.81C424.088 220.81 423.873 220.863 423.67 220.97C423.466 221.067 423.3 221.222 423.171 221.437C423.053 221.64 422.994 221.924 422.994 222.289C422.994 222.653 423.059 222.954 423.187 223.189C423.327 223.425 423.504 223.597 423.718 223.704C423.932 223.801 424.158 223.849 424.393 223.849ZM432.804 230.989C432.235 230.989 431.721 230.876 431.26 230.651C430.81 230.426 430.45 230.088 430.182 229.638C429.925 229.188 429.796 228.625 429.796 227.949C429.796 227.381 429.882 226.899 430.054 226.502C430.225 226.105 430.456 225.789 430.745 225.553C431.045 225.307 431.378 225.13 431.742 225.023C432.107 224.915 432.477 224.862 432.852 224.862C433.431 224.862 433.945 224.974 434.396 225.2C434.857 225.414 435.221 225.752 435.489 226.213C435.757 226.663 435.891 227.231 435.891 227.917C435.891 228.668 435.741 229.268 435.441 229.718C435.141 230.168 434.755 230.49 434.283 230.683C433.811 230.887 433.318 230.989 432.804 230.989ZM432.884 229.445C433.098 229.445 433.307 229.397 433.511 229.3C433.715 229.204 433.881 229.054 434.01 228.85C434.138 228.635 434.203 228.346 434.203 227.981C434.203 227.585 434.133 227.274 433.994 227.049C433.854 226.824 433.677 226.663 433.463 226.566C433.248 226.459 433.029 226.406 432.804 226.406C432.578 226.406 432.364 226.454 432.16 226.55C431.957 226.647 431.79 226.802 431.662 227.017C431.544 227.231 431.485 227.521 431.485 227.885C431.485 228.25 431.549 228.55 431.678 228.786C431.817 229.011 431.994 229.177 432.209 229.284C432.423 229.391 432.648 229.445 432.884 229.445ZM424.313 230.41L430.681 219.796H432.675L426.307 230.41H424.313Z" fill="#0F2C23"/>
<rect x="389.31" y="208.82" width="59" height="32.36" rx="16.18" stroke="#0F2C23" stroke-width="2"/>
</g>
<g clip-path="url(#clip1_134_538)">
<rect x="46.8701" y="338.32" width="59" height="34.36" rx="17.18" fill="#F8FFE8"/>
<path d="M59.5777 360.91V358.755L63.5817 355.989C63.7854 355.839 63.9945 355.673 64.2089 355.49C64.4233 355.308 64.6216 355.11 64.8039 354.896C64.9968 354.67 65.1469 354.429 65.2541 354.172C65.3721 353.904 65.431 353.62 65.431 353.32C65.431 352.998 65.356 352.725 65.2059 352.499C65.0665 352.274 64.8575 352.097 64.5787 351.969C64.3107 351.84 63.9784 351.776 63.5817 351.776C63.228 351.776 62.9224 351.829 62.6651 351.937C62.4186 352.044 62.2149 352.205 62.0541 352.419C61.8933 352.623 61.7754 352.88 61.7003 353.191C61.6253 353.502 61.5877 353.861 61.5877 354.268L59.6259 353.882C59.6152 353.1 59.7599 352.424 60.0601 351.856C60.3603 351.277 60.8105 350.832 61.4109 350.522C62.0219 350.2 62.7563 350.039 63.6139 350.039C64.3751 350.039 65.0397 350.162 65.6079 350.409C66.1868 350.656 66.6371 351.009 66.9587 351.47C67.2803 351.931 67.4411 352.499 67.4411 353.175C67.4411 353.689 67.35 354.161 67.1677 354.59C66.9962 355.019 66.7711 355.405 66.4923 355.748C66.2243 356.08 65.9242 356.38 65.5918 356.648C65.2595 356.916 64.9379 357.147 64.627 357.34L61.9254 359.173V359.302L67.6341 359.221V360.91H59.5777ZM73.3065 361.135C72.5131 361.135 71.8217 361.017 71.2321 360.781C70.6424 360.545 70.1815 360.213 69.8491 359.784C69.5275 359.355 69.3667 358.835 69.3667 358.224L71.2803 357.822C71.3339 358.358 71.5322 358.771 71.8753 359.06C72.2291 359.339 72.7008 359.478 73.2904 359.478C73.955 359.478 74.4643 359.302 74.818 358.948C75.1718 358.583 75.3487 358.037 75.3487 357.308C75.3487 356.997 75.3165 356.713 75.2522 356.455C75.1879 356.187 75.0807 355.957 74.9306 355.764C74.7912 355.571 74.6036 355.421 74.3678 355.314C74.1427 355.206 73.8639 355.153 73.5316 355.153C73.285 355.153 73.0653 355.185 72.8723 355.249C72.6793 355.303 72.5078 355.389 72.3577 355.507C72.2076 355.614 72.0736 355.748 71.9557 355.909C71.8485 356.059 71.7466 356.225 71.6502 356.407H69.5597L69.9456 350.296H76.9728V352.001H71.6502L71.4089 355.298H71.5858C71.811 354.729 72.1701 354.311 72.6632 354.043C73.1564 353.765 73.6978 353.625 74.2874 353.625C74.9949 353.625 75.5792 353.775 76.0402 354.075C76.5119 354.376 76.8603 354.799 77.0854 355.346C77.3213 355.893 77.4392 356.536 77.4392 357.275C77.4392 358.176 77.2623 358.91 76.9085 359.478C76.5655 360.047 76.0831 360.465 75.4613 360.733C74.8395 361.001 74.1212 361.135 73.3065 361.135ZM81.7428 355.893C81.1747 355.893 80.6601 355.785 80.1991 355.571C79.7488 355.346 79.3897 355.008 79.1217 354.558C78.8644 354.097 78.7358 353.529 78.7358 352.853C78.7358 352.285 78.8215 351.803 78.993 351.406C79.1646 351.009 79.3951 350.693 79.6845 350.457C79.9847 350.221 80.317 350.05 80.6815 349.943C81.046 349.825 81.4159 349.766 81.7911 349.766C82.37 349.766 82.8846 349.878 83.3348 350.103C83.7958 350.329 84.1603 350.666 84.4283 351.117C84.6963 351.567 84.8303 352.135 84.8303 352.821C84.8303 353.572 84.6802 354.177 84.3801 354.638C84.0799 355.088 83.694 355.41 83.2223 355.603C82.7506 355.796 82.2574 355.893 81.7428 355.893ZM81.8232 354.349C82.0377 354.349 82.2467 354.301 82.4504 354.204C82.6541 354.108 82.8202 353.957 82.9489 353.754C83.0775 353.539 83.1419 353.25 83.1419 352.885C83.1419 352.499 83.0722 352.194 82.9328 351.969C82.7934 351.733 82.6166 351.567 82.4021 351.47C82.1877 351.363 81.968 351.31 81.7428 351.31C81.5177 351.31 81.3033 351.363 81.0996 351.47C80.8959 351.567 80.7298 351.722 80.6011 351.937C80.4832 352.14 80.4242 352.424 80.4242 352.789C80.4242 353.153 80.4885 353.454 80.6172 353.689C80.7566 353.925 80.9334 354.097 81.1479 354.204C81.3623 354.301 81.5874 354.349 81.8232 354.349ZM90.2334 361.489C89.6652 361.489 89.1507 361.376 88.6897 361.151C88.2394 360.926 87.8803 360.588 87.6123 360.138C87.355 359.688 87.2263 359.125 87.2263 358.449C87.2263 357.881 87.3121 357.399 87.4836 357.002C87.6552 356.605 87.8856 356.289 88.1751 356.053C88.4753 355.807 88.8076 355.63 89.1721 355.523C89.5366 355.415 89.9064 355.362 90.2817 355.362C90.8606 355.362 91.3751 355.474 91.8254 355.7C92.2864 355.914 92.6509 356.252 92.9189 356.713C93.1869 357.163 93.3209 357.731 93.3209 358.417C93.3209 359.168 93.1708 359.768 92.8706 360.218C92.5705 360.668 92.1845 360.99 91.7128 361.183C91.2411 361.387 90.748 361.489 90.2334 361.489ZM90.3138 359.945C90.5282 359.945 90.7373 359.897 90.941 359.8C91.1447 359.704 91.3108 359.554 91.4395 359.35C91.5681 359.135 91.6324 358.846 91.6324 358.481C91.6324 358.085 91.5628 357.774 91.4234 357.549C91.284 357.324 91.1071 357.163 90.8927 357.066C90.6783 356.959 90.4585 356.906 90.2334 356.906C90.0083 356.906 89.7939 356.954 89.5902 357.05C89.3865 357.147 89.2203 357.302 89.0917 357.517C88.9738 357.731 88.9148 358.021 88.9148 358.385C88.9148 358.75 88.9791 359.05 89.1078 359.286C89.2471 359.511 89.424 359.677 89.6384 359.784C89.8528 359.891 90.078 359.945 90.3138 359.945ZM81.7428 360.91L88.1108 350.296H90.1048L83.7368 360.91H81.7428Z" fill="#0F2C23"/>
<rect x="47.8701" y="339.32" width="57.01" height="32.36" rx="16.18" stroke="#0F2C23" stroke-width="2"/>
</g>
<g clip-path="url(#clip2_134_538)">
<rect x="17.46" y="108.82" width="55" height="34.36" rx="17.18" fill="#F8FFE8"/>
<path d="M31.5022 131.41V123.852H29.9585V122.067C30.4623 122.067 30.8751 121.981 31.1967 121.81C31.5183 121.638 31.7273 121.3 31.8238 120.796H33.5605V131.41H31.5022ZM39.7191 131.635C38.9258 131.635 38.2343 131.517 37.6447 131.281C37.0551 131.045 36.5941 130.713 36.2618 130.284C35.9402 129.855 35.7793 129.335 35.7793 128.724L37.6929 128.322C37.7465 128.858 37.9449 129.271 38.2879 129.56C38.6417 129.839 39.1134 129.978 39.703 129.978C40.3677 129.978 40.8769 129.802 41.2307 129.448C41.5845 129.083 41.7613 128.537 41.7613 127.808C41.7613 127.497 41.7292 127.213 41.6649 126.955C41.6005 126.687 41.4933 126.457 41.3433 126.264C41.2039 126.071 41.0163 125.921 40.7804 125.814C40.5553 125.706 40.2766 125.653 39.9442 125.653C39.6977 125.653 39.4779 125.685 39.2849 125.749C39.092 125.803 38.9204 125.889 38.7703 126.007C38.6203 126.114 38.4863 126.248 38.3683 126.409C38.2611 126.559 38.1593 126.725 38.0628 126.907H35.9723L36.3583 120.796H43.3855V122.501H38.0628L37.8216 125.798H37.9985C38.2236 125.229 38.5827 124.811 39.0759 124.543C39.569 124.265 40.1104 124.125 40.7 124.125C41.4076 124.125 41.9918 124.275 42.4528 124.575C42.9245 124.876 43.2729 125.299 43.4981 125.846C43.7339 126.393 43.8518 127.036 43.8518 127.775C43.8518 128.676 43.6749 129.41 43.3212 129.978C42.9781 130.547 42.4957 130.965 41.8739 131.233C41.2521 131.501 40.5339 131.635 39.7191 131.635ZM48.1555 126.393C47.5873 126.393 47.0727 126.285 46.6117 126.071C46.1615 125.846 45.8024 125.508 45.5343 125.058C45.2771 124.597 45.1484 124.029 45.1484 123.353C45.1484 122.785 45.2342 122.303 45.4057 121.906C45.5772 121.509 45.8077 121.193 46.0972 120.957C46.3973 120.721 46.7297 120.55 47.0942 120.443C47.4587 120.325 47.8285 120.266 48.2037 120.266C48.7826 120.266 49.2972 120.378 49.7475 120.603C50.2084 120.829 50.5729 121.166 50.841 121.617C51.109 122.067 51.243 122.635 51.243 123.321C51.243 124.072 51.0929 124.677 50.7927 125.138C50.4925 125.588 50.1066 125.91 49.6349 126.103C49.1632 126.296 48.6701 126.393 48.1555 126.393ZM48.2359 124.849C48.4503 124.849 48.6593 124.801 48.863 124.704C49.0667 124.608 49.2329 124.457 49.3615 124.254C49.4902 124.039 49.5545 123.75 49.5545 123.385C49.5545 122.999 49.4848 122.694 49.3455 122.469C49.2061 122.233 49.0292 122.067 48.8148 121.97C48.6004 121.863 48.3806 121.81 48.1555 121.81C47.9304 121.81 47.7159 121.863 47.5123 121.97C47.3086 122.067 47.1424 122.222 47.0138 122.437C46.8958 122.64 46.8369 122.924 46.8369 123.289C46.8369 123.653 46.9012 123.954 47.0298 124.189C47.1692 124.425 47.3461 124.597 47.5605 124.704C47.7749 124.801 48 124.849 48.2359 124.849ZM56.6461 131.989C56.0779 131.989 55.5633 131.876 55.1023 131.651C54.6521 131.426 54.2929 131.088 54.0249 130.638C53.7676 130.188 53.639 129.625 53.639 128.949C53.639 128.381 53.7247 127.899 53.8963 127.502C54.0678 127.105 54.2983 126.789 54.5877 126.553C54.8879 126.307 55.2202 126.13 55.5847 126.023C55.9492 125.915 56.3191 125.862 56.6943 125.862C57.2732 125.862 57.7878 125.974 58.238 126.2C58.699 126.414 59.0635 126.752 59.3315 127.213C59.5995 127.663 59.7335 128.231 59.7335 128.917C59.7335 129.668 59.5835 130.268 59.2833 130.718C58.9831 131.168 58.5972 131.49 58.1255 131.683C57.6538 131.887 57.1606 131.989 56.6461 131.989ZM56.7265 130.445C56.9409 130.445 57.1499 130.397 57.3536 130.3C57.5573 130.204 57.7235 130.054 57.8521 129.85C57.9808 129.635 58.0451 129.346 58.0451 128.981C58.0451 128.585 57.9754 128.274 57.836 128.049C57.6967 127.824 57.5198 127.663 57.3054 127.566C57.091 127.459 56.8712 127.406 56.6461 127.406C56.4209 127.406 56.2065 127.454 56.0028 127.55C55.7991 127.647 55.633 127.802 55.5043 128.017C55.3864 128.231 55.3275 128.521 55.3275 128.885C55.3275 129.25 55.3918 129.55 55.5204 129.786C55.6598 130.011 55.8367 130.177 56.0511 130.284C56.2655 130.391 56.4906 130.445 56.7265 130.445ZM48.1555 131.41L54.5234 120.796H56.5174L50.1495 131.41H48.1555Z" fill="#0F2C23"/>
<rect x="18.46" y="109.82" width="53.01" height="32.36" rx="16.18" stroke="#0F2C23" stroke-width="2"/>
</g>
<g clip-path="url(#clip3_134_538)">
<rect x="133.98" y="18.8198" width="56" height="34.36" rx="17.18" fill="#F8FFE8"/>
<path d="M148.023 41.4097V33.8518H146.479V32.0668C146.983 32.0668 147.396 31.9811 147.717 31.8095C148.039 31.638 148.248 31.3003 148.344 30.7964H150.081V41.4097H148.023ZM156.77 41.6348C156.095 41.6348 155.484 41.5115 154.937 41.2649C154.39 41.0077 153.924 40.6432 153.538 40.1715C153.152 39.6998 152.852 39.1262 152.638 38.4508C152.434 37.7754 152.332 37.0089 152.332 36.1513C152.332 34.9506 152.525 33.9375 152.911 33.1121C153.297 32.2866 153.828 31.6594 154.503 31.2306C155.178 30.8018 155.95 30.5874 156.819 30.5874C157.719 30.5874 158.496 30.8072 159.15 31.2467C159.815 31.6862 160.324 32.3187 160.678 33.1442C161.042 33.9697 161.225 34.9613 161.225 36.1191C161.225 36.9768 161.117 37.7486 160.903 38.4347C160.699 39.1209 160.399 39.7051 160.002 40.1875C159.606 40.6592 159.134 41.0184 158.587 41.2649C158.041 41.5115 157.435 41.6348 156.77 41.6348ZM156.802 39.9946C157.113 39.9946 157.414 39.9195 157.703 39.7694C157.992 39.6194 158.25 39.3942 158.475 39.0941C158.7 38.7832 158.877 38.3865 159.005 37.9041C159.134 37.4217 159.198 36.8374 159.198 36.1513C159.198 35.3258 159.097 34.6183 158.893 34.0287C158.689 33.439 158.405 32.9888 158.041 32.6779C157.687 32.367 157.269 32.2115 156.786 32.2115C156.39 32.2115 156.004 32.3402 155.629 32.5975C155.264 32.8548 154.964 33.2675 154.728 33.8357C154.492 34.3931 154.374 35.1489 154.374 36.1031C154.374 36.7784 154.433 37.3573 154.551 37.8398C154.68 38.3222 154.851 38.7242 155.066 39.0458C155.291 39.3567 155.548 39.5926 155.838 39.7534C156.138 39.9142 156.459 39.9946 156.802 39.9946ZM165.665 36.3925C165.097 36.3925 164.583 36.2853 164.122 36.0709C163.671 35.8458 163.312 35.5081 163.044 35.0578C162.787 34.5968 162.658 34.0287 162.658 33.3533C162.658 32.7851 162.744 32.3027 162.916 31.906C163.087 31.5094 163.318 31.1931 163.607 30.9573C163.907 30.7214 164.24 30.5499 164.604 30.4427C164.969 30.3247 165.338 30.2658 165.714 30.2658C166.292 30.2658 166.807 30.3783 167.257 30.6035C167.718 30.8286 168.083 31.1663 168.351 31.6166C168.619 32.0668 168.753 32.635 168.753 33.3211C168.753 34.0715 168.603 34.6772 168.303 35.1382C168.002 35.5885 167.616 35.9101 167.145 36.1031C166.673 36.296 166.18 36.3925 165.665 36.3925ZM165.746 34.8488C165.96 34.8488 166.169 34.8005 166.373 34.704C166.577 34.6076 166.743 34.4575 166.871 34.2538C167 34.0394 167.064 33.7499 167.064 33.3854C167.064 32.9995 166.995 32.694 166.855 32.4688C166.716 32.233 166.539 32.0668 166.325 31.9703C166.11 31.8631 165.89 31.8095 165.665 31.8095C165.44 31.8095 165.226 31.8631 165.022 31.9703C164.818 32.0668 164.652 32.2223 164.524 32.4367C164.406 32.6404 164.347 32.9244 164.347 33.2889C164.347 33.6534 164.411 33.9536 164.54 34.1895C164.679 34.4253 164.856 34.5968 165.07 34.704C165.285 34.8005 165.51 34.8488 165.746 34.8488ZM174.156 41.9886C173.588 41.9886 173.073 41.876 172.612 41.6509C172.162 41.4257 171.803 41.0881 171.535 40.6378C171.277 40.1875 171.149 39.6247 171.149 38.9493C171.149 38.3811 171.235 37.8987 171.406 37.5021C171.578 37.1054 171.808 36.7892 172.098 36.5533C172.398 36.3067 172.73 36.1299 173.095 36.0227C173.459 35.9154 173.829 35.8618 174.204 35.8618C174.783 35.8618 175.298 35.9744 175.748 36.1995C176.209 36.4139 176.573 36.7516 176.841 37.2126C177.109 37.6629 177.243 38.2311 177.243 38.9172C177.243 39.6676 177.093 40.2679 176.793 40.7182C176.493 41.1685 176.107 41.4901 175.635 41.683C175.164 41.8867 174.67 41.9886 174.156 41.9886ZM174.236 40.4448C174.451 40.4448 174.66 40.3966 174.863 40.3001C175.067 40.2036 175.233 40.0535 175.362 39.8498C175.491 39.6354 175.555 39.346 175.555 38.9815C175.555 38.5848 175.485 38.2739 175.346 38.0488C175.207 37.8237 175.03 37.6629 174.815 37.5664C174.601 37.4592 174.381 37.4056 174.156 37.4056C173.931 37.4056 173.716 37.4538 173.513 37.5503C173.309 37.6468 173.143 37.8022 173.014 38.0167C172.896 38.2311 172.837 38.5205 172.837 38.885C172.837 39.2495 172.902 39.5497 173.03 39.7855C173.17 40.0107 173.347 40.1768 173.561 40.284C173.775 40.3912 174 40.4448 174.236 40.4448ZM165.665 41.4097L172.033 30.7964H174.027L167.659 41.4097H165.665Z" fill="#0F2C23"/>
<rect x="134.98" y="19.8198" width="53.99" height="32.36" rx="16.18" stroke="#0F2C23" stroke-width="2"/>
</g>
<defs>
<clipPath id="clip0_134_538">
<rect x="388.31" y="207.82" width="61" height="34.36" rx="17.18" fill="white"/>
</clipPath>
<clipPath id="clip1_134_538">
<rect x="46.8701" y="338.32" width="59" height="34.36" rx="17.18" fill="white"/>
</clipPath>
<clipPath id="clip2_134_538">
<rect x="17.46" y="108.82" width="55" height="34.36" rx="17.18" fill="white"/>
</clipPath>
<clipPath id="clip3_134_538">
<rect x="133.98" y="18.8198" width="56" height="34.36" rx="17.18" fill="white"/>
</clipPath>
</defs>
</svg>
