<svg width="39" height="73" viewBox="0 0 39 73" fill="none" xmlns="http://www.w3.org/2000/svg">
<path d="M1.49765 72.3421C0.430928 71.7287 -0.0329822 70.4038 0.477098 69.3272C1.07777 68.0703 1.52857 66.7478 2.04872 65.4592C3.47434 62.1364 4.9768 58.8044 7.0525 55.7875C11.4821 49.6539 17.1953 44.4371 23.0772 39.561C18.6328 38.5786 13.8144 38.0899 10.0384 35.4443C7.4686 33.6197 6.4222 30.193 7.8431 27.4387C11.3382 21.797 16.0208 16.8612 20.5328 11.9294C24.89 7.71532 30.1235 0.424703 37.0107 0.718321C38.1005 0.808201 39.363 1.8494 38.8671 2.94971C37.8998 4.53227 36.5872 5.94149 35.4876 7.4532C30.2252 14.841 24.1458 21.6479 18.6283 28.8617C22.988 29.951 27.4511 30.6384 31.8422 31.5863C38.0295 33.2749 38.0657 39.1421 33.9377 42.9584C29.8449 47.084 24.9697 50.4583 20.9915 54.7149C17.2238 58.7436 13.6827 62.9535 9.6406 66.748C8.2355 68.1123 6.8831 69.5306 5.762 70.6868C4.6665 72.0597 3.44208 73.3678 1.49138 72.3454L1.49765 72.3421Z" fill="#E2FEA5"/>
</svg>
