<svg width="34" height="34" viewBox="0 0 34 34" fill="none" xmlns="http://www.w3.org/2000/svg">
<path d="M17 33C25.8366 33 33 25.8366 33 17C33 8.16344 25.8366 1 17 1C8.16344 1 1 8.16344 1 17C1 25.8366 8.16344 33 17 33Z" stroke="white" stroke-miterlimit="10"/>
<path d="M17 1.0271V33" stroke="white" stroke-miterlimit="10"/>
<path d="M17 33C21.4183 33 25 25.8366 25 17C25 8.16344 21.4183 1 17 1C12.5817 1 9 8.16344 9 17C9 25.8366 12.5817 33 17 33Z" stroke="white" stroke-miterlimit="10"/>
<path d="M1.02734 17H33.0002" stroke="white" stroke-miterlimit="10"/>
</svg>
