<svg width="397" height="416" viewBox="0 0 397 416" fill="none" xmlns="http://www.w3.org/2000/svg">
<g clip-path="url(#clip0_134_103)">
<mask id="mask0_134_103" style="mask-type:luminance" maskUnits="userSpaceOnUse" x="0" y="0" width="397" height="416">
<path d="M397 0H0V416H397V0Z" fill="white"/>
</mask>
<g mask="url(#mask0_134_103)">
<path d="M288.51 224.913L228.792 390.137L209.382 377.95L183.983 361.995L137.857 333.04L130.463 328.394L116.593 319.687L82.9831 298.582L63.4775 286.334L198.497 175.611L203.772 178.499L215.021 184.662L220.75 187.803L221.149 188.016L263.921 211.447L265.679 212.408L288.51 224.913Z" fill="#E0DFFE"/>
<g style="mix-blend-mode:multiply">
<path d="M215.022 184.662L116.594 319.687L82.9834 298.583L203.773 178.499L215.022 184.662Z" fill="#AEAECC"/>
</g>
<g style="mix-blend-mode:multiply">
<path d="M221.149 188.015C193.388 236.361 165.623 284.694 137.857 333.04L130.463 328.394C160.557 281.523 190.656 234.665 220.75 187.803L221.149 188.02V188.015Z" fill="#AEAECC"/>
</g>
<g style="mix-blend-mode:multiply">
<path d="M265.68 212.408C246.914 267.587 228.143 322.767 209.378 377.95L183.98 361.995C210.627 311.819 237.27 261.633 263.921 211.447L265.68 212.408Z" fill="#AEAECC"/>
</g>
<path d="M266.288 400.511C261.853 407.093 254.917 411.568 247.092 412.877C240.769 413.943 234.305 412.859 228.722 409.885C222.694 413.825 215.427 415.887 207.858 415.447C194.555 414.661 183.091 406.313 178.104 394.313C176.751 394.882 175.332 395.331 173.852 395.64C165.8 397.302 157.593 394.448 152.288 388.428C143.066 394.861 131.66 397.414 120.55 395.478C109.025 393.477 98.8328 386.845 92.344 377.119C88.5534 371.434 86.2251 364.988 85.4592 358.333C82.8915 359.268 80.1063 359.543 77.3559 359.073C73.1169 358.346 69.3525 355.937 66.9284 352.387C64.5044 348.842 63.621 344.458 64.4914 340.247C64.8526 338.503 65.501 336.855 66.3888 335.358C60.2352 334.784 54.2816 332.449 49.2986 328.508C40.9777 321.923 36.4124 311.679 37.0739 301.093C37.7355 290.506 43.5497 280.91 52.6322 275.412C55.9963 273.377 59.6521 271.998 63.4165 271.293C67.3201 270.558 71.3414 270.54 75.2712 271.267C74.8273 266.674 76.5115 262.111 79.8538 258.905C83.3267 255.579 88.1704 254.099 92.9054 254.917C95.9996 255.452 98.8024 256.931 100.978 259.088C104.316 247.423 114.387 238.332 127.181 236.844C142.579 235.057 156.675 244.887 160.626 259.44C164.221 257.044 168.221 255.235 172.481 254.126C182.599 251.494 193.358 253.012 202.353 258.349C211.349 263.685 217.837 272.385 220.379 282.529C222.529 291.118 221.689 300.131 218.09 308.117C234.249 302.392 252.653 308.448 262.058 323.376C262.25 323.676 262.432 323.972 262.614 324.276C270.005 336.755 269.278 351.787 262.01 363.257C266.235 367.197 269.23 372.348 270.509 378.08C272.246 385.814 270.719 393.926 266.297 400.507L266.288 400.511Z" fill="#E0DFFE"/>
<g style="mix-blend-mode:multiply">
<path d="M266.288 400.511C261.853 407.092 254.917 411.568 247.092 412.877C240.769 413.943 234.305 412.859 228.722 409.884C222.694 413.825 215.427 415.887 207.858 415.447C194.555 414.661 183.091 406.313 178.104 394.313C176.751 394.882 175.332 395.331 173.852 395.64C165.8 397.301 157.593 394.448 152.288 388.428C143.066 394.861 131.66 397.414 120.55 395.478C109.025 393.477 98.8328 386.845 92.344 377.119C88.5534 371.434 86.2251 364.988 85.4592 358.333C82.8915 359.268 80.1063 359.543 77.3559 359.073C73.1169 358.346 69.3525 355.936 66.9284 352.387C64.5044 348.842 63.621 344.457 64.4914 340.247C64.8526 338.503 65.501 336.854 66.3888 335.358C60.2352 334.784 54.2816 332.449 49.2986 328.508C40.9777 321.923 36.4124 311.679 37.0739 301.093C37.7355 290.506 43.5497 280.91 52.6322 275.412C55.9963 273.377 59.6521 271.998 63.4165 271.293C63.1292 272.067 62.8594 272.842 62.6505 273.607C60.5223 281.324 61.1404 289.761 64.9136 296.886C71.2239 308.787 84.7324 315.955 98.2017 316.403C98.5804 331.605 108.764 346.115 122.939 351.652C137.113 357.181 154.438 353.414 165.027 342.491C169.504 355.45 180.958 364.648 194.21 365.944C209.042 367.393 223.469 358.685 229.452 344.419C231.199 344.71 243.984 346.624 253.816 337.655C259.521 332.449 261.409 326.155 262.058 323.384C262.25 323.684 262.432 323.98 262.614 324.284C270.005 336.763 269.278 351.796 262.01 363.265C266.235 367.206 269.23 372.356 270.509 378.089C272.246 385.822 270.719 393.934 266.297 400.516L266.288 400.511Z" fill="#AEAECC"/>
</g>
<path d="M209.917 416C209.225 416 208.529 415.978 207.829 415.939C194.746 415.169 183.027 406.952 177.834 394.957C176.577 395.456 175.271 395.848 173.948 396.122C165.98 397.767 157.689 395.069 152.21 389.085C142.876 395.461 131.617 397.91 120.462 395.97C108.86 393.957 98.4634 387.184 91.931 377.397C88.2666 371.899 85.8905 365.554 85.0418 359.007C82.5351 359.816 79.863 360.008 77.2692 359.568C72.9172 358.825 69.0005 356.311 66.5154 352.674C64.0262 349.034 63.1078 344.471 64.0001 340.151C64.3178 338.625 64.8486 337.155 65.5841 335.775C59.5131 335.067 53.7903 332.7 48.9901 328.904C40.5429 322.218 35.9037 311.814 36.5783 301.066C37.2528 290.319 43.1584 280.576 52.3716 274.999C59.0823 270.941 66.9986 269.418 74.7277 270.684C74.4709 266.126 76.1943 261.742 79.5061 258.561C83.0748 255.143 88.1143 253.603 92.9842 254.447C95.8782 254.947 98.5417 256.239 100.731 258.197C104.447 246.344 114.718 237.814 127.117 236.371C134.632 235.495 142.218 237.362 148.467 241.62C154.469 245.713 158.868 251.751 160.91 258.67C164.448 256.4 168.291 254.717 172.351 253.664C182.53 251.016 193.558 252.573 202.602 257.94C211.645 263.308 218.3 272.228 220.849 282.424C222.917 290.68 222.247 299.47 218.978 307.308C235.66 301.945 254.042 308.865 263.033 324.041C270.241 336.211 270.079 351.178 262.633 363.192C266.832 367.21 269.718 372.318 270.989 377.984C272.747 385.814 271.185 394.131 266.702 400.794C262.215 407.457 255.099 412.041 247.183 413.368C240.917 414.421 234.385 413.386 228.757 410.462C223.086 414.108 216.619 416.005 209.93 416.005L209.917 416ZM178.369 393.669L178.561 394.126C183.505 406.022 195.02 414.199 207.894 414.956C215.21 415.383 222.32 413.491 228.457 409.476L228.701 409.315L228.957 409.454C234.454 412.381 240.864 413.425 247.018 412.394C254.672 411.111 261.549 406.679 265.883 400.241C270.214 393.8 271.724 385.766 270.027 378.198C268.774 372.591 265.88 367.554 261.666 363.631L261.366 363.353L261.583 363.008C269.044 351.251 269.274 336.512 262.184 324.546C253.245 309.452 234.767 302.745 218.247 308.595L217.159 308.982L217.634 307.93C221.189 300.035 221.994 291.062 219.892 282.663C217.402 272.72 210.918 264.016 202.097 258.788C193.28 253.555 182.526 252.037 172.599 254.621C168.43 255.704 164.491 257.47 160.893 259.867L160.322 260.246L160.143 259.584C156.231 245.182 142.092 235.631 127.229 237.354C114.962 238.784 104.843 247.375 101.449 259.245L101.218 260.045L100.626 259.458C98.4808 257.331 95.7782 255.935 92.8188 255.422C88.2537 254.634 83.5318 256.074 80.1894 259.279C76.9384 262.398 75.3239 266.752 75.7591 271.237L75.82 271.889L75.1759 271.771C67.486 270.358 59.5697 271.811 52.8807 275.851C43.9419 281.258 38.2146 290.714 37.5618 301.136C36.9091 311.562 41.409 321.653 49.6037 328.138C54.4518 331.974 60.2704 334.306 66.4285 334.88L67.2031 334.954L66.807 335.623C65.9323 337.098 65.3144 338.69 64.9662 340.36C64.1306 344.414 64.9923 348.703 67.3294 352.127C69.6619 355.544 73.348 357.906 77.4346 358.603C80.0632 359.051 82.7788 358.803 85.2855 357.885L85.8731 357.672L85.9427 358.293C86.7043 364.901 89.0544 371.321 92.7492 376.858C99.1292 386.423 109.291 393.038 120.628 395.009C131.668 396.927 142.814 394.448 152.002 388.037L152.363 387.784L152.654 388.115C157.898 394.069 165.976 396.77 173.748 395.165C175.167 394.869 176.568 394.435 177.904 393.869L178.361 393.677L178.369 393.669Z" fill="#3D3B3B"/>
<path d="M66.4366 336.442L65.5488 336.015C66.5498 333.923 67.9946 332 69.7268 330.456L70.384 331.191C68.7476 332.649 67.3855 334.463 66.4411 336.437L66.4366 336.442Z" fill="#3D3B3B"/>
<path d="M85.0814 359.146L84.7158 358.229C87.401 357.163 89.9425 355.754 92.2622 354.04L92.8496 354.831C90.4604 356.597 87.8449 358.05 85.0814 359.146Z" fill="#3D3B3B"/>
<path d="M100.474 266.169C100.152 263.369 100.265 260.55 100.801 257.783L101.767 257.97C101.249 260.636 101.14 263.359 101.449 266.056L100.47 266.169H100.474Z" fill="#3D3B3B"/>
<path d="M161.258 266.474L160.284 266.339C160.658 263.634 160.461 260.819 159.718 258.192L160.666 257.922C161.45 260.68 161.655 263.638 161.263 266.479L161.258 266.474Z" fill="#3D3B3B"/>
<path d="M228.822 410.593C226.712 409.637 224.958 407.875 224.014 405.757L224.914 405.357C225.764 407.257 227.334 408.836 229.227 409.693L228.818 410.59L228.822 410.593Z" fill="#3D3B3B"/>
<path d="M261.527 363.548C259.83 362.305 257.959 361.33 255.962 360.66L256.275 359.725C258.368 360.43 260.327 361.448 262.106 362.752L261.524 363.548H261.527Z" fill="#3D3B3B"/>
<path d="M337.982 184.071C328.834 193.87 316.105 206.362 299.429 219.541C294.349 223.556 288.905 227.632 283.079 231.715C282.069 230.85 265.623 216.754 264.6 215.879C263.59 215.013 247.144 200.917 246.125 200.042C239.541 196.363 232.512 192.661 225.04 189.025C217.059 185.14 209.339 181.696 201.949 178.643C202.933 171.761 204.129 165.181 205.478 158.917C211.349 131.641 220.131 110.332 227.303 95.6824C240.486 68.7367 257.518 35.0534 294.406 15.1409C303.128 10.4346 310.9 7.60301 316.262 5.92406C327.155 2.57486 342.391 -0.348065 361.688 1.0873C370.139 1.718 377.703 6.62434 381.673 14.0969C390.407 30.5471 393.927 45.1923 395.346 56.4099C396.056 62.0078 396.765 70.7374 395.856 81.2722C392.064 125.277 363.902 156.277 337.979 184.066L337.982 184.071Z" fill="#F9B0C3"/>
<path d="M299.433 219.541C294.355 223.556 288.911 227.632 283.083 231.717C282.073 230.851 265.627 216.754 264.605 215.879C263.595 215.013 247.149 200.917 246.13 200.042C239.546 196.363 232.517 192.661 225.045 189.025C217.063 185.14 209.343 181.696 201.953 178.643C202.937 171.761 204.134 165.181 205.483 158.917C220.553 163.971 237.705 171.483 255.339 182.74C273.705 194.466 288.214 207.458 299.433 219.541Z" fill="#FFC212"/>
<path d="M395.859 81.2765C391.246 71.6422 380.145 51.8037 357.462 35.9841C331.32 17.7506 305.017 15.4801 294.402 15.1409C299.216 12.6224 306.635 8.88178 316.258 5.92406C327.151 2.57486 342.387 -0.348065 361.684 1.0873C370.135 1.718 377.699 6.62434 381.668 14.0969C390.402 30.5471 393.923 45.1923 395.342 56.4099C396.386 64.6437 396.538 72.9514 395.851 81.2722L395.859 81.2765Z" fill="#FFC212"/>
<path d="M396.356 83.969L395.215 81.5853C389.183 68.9846 377.668 50.9469 357.058 36.5714C333.818 20.3648 310.148 16.3631 294.384 15.8542L291.664 15.7673L294.076 14.5059C299.846 11.4916 306.974 8.02934 316.053 5.24124C330.419 0.826399 345.794 -0.8134 361.745 0.37404C370.518 1.02648 378.204 6.03286 382.307 13.7621C389.592 27.4808 394.218 41.804 396.059 56.3229C397.096 64.4915 397.27 72.9036 396.573 81.3331L396.356 83.969ZM297.126 14.5451C313.016 15.4193 335.638 19.8951 357.876 35.4013C377.481 49.0764 388.958 66.0182 395.337 78.5972C395.79 71.1464 395.555 63.7303 394.641 56.5056C392.822 42.1563 388.248 28.0027 381.045 14.4363C377.173 7.14201 369.917 2.41835 361.64 1.80506C345.864 0.630667 330.671 2.24871 316.475 6.61137C308.719 8.99495 302.396 11.8787 297.131 14.5494L297.126 14.5451Z" fill="#3D3B3B"/>
<path d="M283.039 232.621L282.617 232.26C281.895 231.642 273.317 224.288 268.09 219.811L264.143 216.428C263.307 215.71 251.957 205.98 247.449 202.114L245.725 200.634C238.849 196.793 231.79 193.106 224.736 189.668C217.159 185.981 209.404 182.492 201.683 179.303L201.17 179.091L201.248 178.543C202.201 171.9 203.39 165.246 204.786 158.769C209.548 136.639 216.911 115.308 226.668 95.3695C239.14 69.8679 256.227 34.945 294.072 14.5148C301.047 10.7481 308.441 7.62943 316.053 5.24585C330.424 0.826656 345.794 -0.808793 361.749 0.378647C370.522 1.03109 378.208 6.03747 382.312 13.7667C389.597 27.4854 394.223 41.8086 396.065 56.3275C397.118 64.6483 397.292 73.0648 396.578 81.3422C392.692 126.487 362.649 158.691 338.514 184.563C326.685 197.242 313.686 209.199 299.881 220.107C294.563 224.314 289.05 228.415 283.5 232.304L283.043 232.621H283.039ZM202.741 178.194C210.318 181.339 217.925 184.766 225.358 188.386C232.456 191.843 239.563 195.554 246.483 199.421L246.601 199.504L248.381 201.03C252.889 204.897 264.243 214.627 265.075 215.344L269.022 218.729C273.739 222.773 281.194 229.158 283.126 230.816C288.502 227.036 293.836 223.056 298.989 218.985C312.738 208.125 325.68 196.211 337.461 183.588C361.449 157.874 391.303 125.873 395.146 81.2204C395.851 73.043 395.677 64.7266 394.637 56.5059C392.818 42.1565 388.243 28.0029 381.041 14.4365C377.168 7.14227 369.913 2.41861 361.636 1.80531C345.86 0.630924 330.667 2.24897 316.471 6.61162C308.951 8.96911 301.645 12.053 294.746 15.7719C257.302 35.9845 240.337 70.6725 227.948 95.9959C218.243 115.83 210.919 137.052 206.183 159.069C204.834 165.337 203.677 171.771 202.746 178.194H202.741Z" fill="#3D3B3B"/>
<path d="M283.039 232.621L282.617 232.26C281.895 231.642 273.317 224.288 268.09 219.811L264.143 216.428C263.307 215.71 251.957 205.98 247.449 202.112L245.725 200.634C238.849 196.793 231.79 193.104 224.736 189.668C217.159 185.981 209.404 182.492 201.683 179.303L201.17 179.091L201.248 178.542C202.201 171.9 203.39 165.245 204.786 158.769L204.956 157.986L205.713 158.238C223.3 164.141 240.129 172.178 255.727 182.135C271.955 192.495 286.834 204.914 299.959 219.055L300.486 219.62L299.877 220.099C294.558 224.304 289.045 228.407 283.496 232.295L283.039 232.612V232.621ZM202.741 178.194C210.318 181.339 217.925 184.766 225.358 188.386C232.456 191.843 239.563 195.554 246.483 199.421L246.601 199.503L248.381 201.03C252.889 204.896 264.243 214.627 265.075 215.344L269.022 218.728C273.739 222.773 281.194 229.158 283.126 230.815C288.288 227.184 293.414 223.369 298.38 219.468C285.468 205.654 270.858 193.501 254.952 183.348C239.677 173.597 223.217 165.697 206.014 159.857C204.735 165.876 203.637 172.039 202.741 178.199V178.194Z" fill="#3D3B3B"/>
<path d="M243.484 118.266C236.734 128.074 229.988 137.887 223.238 147.696C216.14 158.008 209.047 168.321 201.949 178.638C193.171 177.756 183.357 177.316 172.69 177.69C151.448 178.442 133.257 182.222 118.982 186.406L146.94 143.567C160.061 123.459 183.301 112.32 207.201 114.682L243.479 118.261L243.484 118.266Z" fill="#7767BF"/>
<path d="M223.238 147.699C216.14 158.012 209.047 168.325 201.949 178.643C193.171 177.759 183.357 177.32 172.69 177.694C151.448 178.447 133.257 182.226 118.982 186.411C125.537 178.464 144.685 157.404 177.291 149.204C196.116 144.472 212.484 145.773 223.233 147.699H223.238Z" fill="#46467A"/>
<path d="M282.051 230.855C286.394 238.527 290.755 247.322 294.71 257.239C302.583 276.97 306.457 295.133 308.38 309.874C317.698 295.595 327.02 281.314 336.338 267.035C349.463 246.926 350.294 221.186 338.496 200.269L320.592 168.529C307.745 189.303 294.898 210.081 282.051 230.855Z" fill="#7767BF"/>
<path d="M239.364 225.157C233.623 232.212 227.021 238.88 219.462 244.143C218.33 244.926 217.164 245.687 215.901 246.387L214.404 245.409C215.649 234.861 219.653 224.726 224.388 215.387C226.721 210.816 229.554 206.579 232.827 202.622C234.45 200.638 236.134 198.69 237.788 196.728C240.029 194.1 242.836 190.456 245.265 187.28C245.974 186.35 246.652 185.463 247.27 184.649C251.44 179.23 257.267 171.897 261.575 166.581C268.042 158.609 274.558 150.678 281.295 142.911L282.791 143.889C274.914 160.374 266.393 176.959 257.602 193.074C256.601 194.91 255.596 196.737 254.591 198.559C252.093 203.031 249.956 207.724 247.654 212.295C245.348 216.88 242.609 221.178 239.367 225.157H239.364Z" fill="#7767BF"/>
<path d="M301.801 198.912C295.221 209.56 288.631 220.207 282.048 230.855C286.394 238.527 290.751 247.322 294.707 257.235C302.58 276.965 306.453 295.129 308.377 309.87C313.011 300.671 324.58 274.664 318.939 241.538C315.684 222.413 307.894 207.963 301.797 198.907L301.801 198.912Z" fill="#46467A"/>
<path d="M239.364 225.157C233.623 232.212 227.021 238.88 219.462 244.143C218.33 244.926 217.164 245.687 215.901 246.387L214.404 245.409C215.649 234.861 219.653 224.726 224.388 215.387C226.721 210.816 229.554 206.579 232.827 202.622C234.45 200.638 236.134 198.69 237.788 196.728C240.029 194.101 242.836 190.456 245.265 187.28C244.825 191.765 245.535 194.962 247.305 196.067C249.295 197.311 253.085 196.21 257.607 193.066C256.606 194.901 255.6 196.728 254.595 198.551C252.097 203.022 249.96 207.715 247.658 212.287C245.351 216.871 242.614 221.168 239.372 225.148L239.364 225.157Z" fill="#46467A"/>
<path d="M215.866 247.218L213.639 245.765L213.69 245.326C214.788 236.066 217.982 226.449 223.744 215.066C226.037 210.577 228.905 206.24 232.269 202.169C233.327 200.882 234.423 199.585 235.486 198.337C236.069 197.65 236.656 196.963 237.234 196.272C239.772 193.296 243.031 189.021 245.652 185.589L246.7 184.218C251.061 178.551 257.032 171.053 261.018 166.133C266.789 159.017 273.648 150.64 280.754 142.445L281.163 141.976L283.71 143.633L283.44 144.197C274.883 162.114 265.388 180.521 255.217 198.903C253.541 201.912 251.997 205.075 250.503 208.137C249.786 209.611 249.041 211.134 248.293 212.621C245.922 217.337 243.105 221.708 239.92 225.613C233.501 233.508 226.755 239.941 219.874 244.735C218.93 245.387 217.664 246.235 216.25 247.018L215.871 247.227L215.866 247.218ZM215.162 245.056L215.924 245.553C217.133 244.861 218.22 244.13 219.052 243.555C225.823 238.84 232.469 232.5 238.806 224.705C241.922 220.882 244.681 216.597 247.009 211.973C247.753 210.495 248.498 208.977 249.212 207.506C250.713 204.427 252.266 201.247 253.959 198.207C264.009 180.043 273.395 161.858 281.872 144.146L281.42 143.854C274.474 151.883 267.777 160.07 262.123 167.038C258.141 171.948 252.179 179.434 247.832 185.092L246.788 186.459C244.158 189.908 240.882 194.196 238.322 197.198C237.744 197.885 237.156 198.577 236.569 199.269C235.511 200.517 234.415 201.804 233.365 203.082C230.067 207.076 227.26 211.326 225.014 215.718C219.422 226.762 216.285 236.101 215.162 245.056Z" fill="#3D3B3B"/>
<path d="M117.329 187.641L146.344 143.18C159.661 122.772 183.009 111.576 207.276 113.972L244.76 117.67L223.83 148.1C216.732 158.412 209.639 168.726 202.546 179.043L202.306 179.391L201.883 179.348C192.236 178.376 182.426 178.06 172.721 178.403C154.691 179.043 136.682 181.961 119.192 187.09L117.334 187.633L117.329 187.641ZM200.796 115.086C179.397 115.086 159.405 125.785 147.54 143.964L120.636 185.193C137.662 180.365 155.156 177.603 172.669 176.985C182.3 176.645 192.03 176.95 201.605 177.895C208.621 167.695 215.636 157.495 222.656 147.299L242.213 118.866L207.14 115.404C205.018 115.195 202.902 115.09 200.8 115.09L200.796 115.086Z" fill="#3D3B3B"/>
<path d="M307.92 311.884L307.671 309.961C305.317 291.906 300.734 274.255 294.05 257.5C290.459 248.505 286.216 239.659 281.433 231.207L281.225 230.838L281.446 230.477L320.622 167.12L339.118 199.916C351.091 221.143 350.256 247.009 336.938 267.422L307.923 311.884H307.92ZM282.882 230.873C287.613 239.272 291.816 248.049 295.377 256.974C301.87 273.251 306.396 290.362 308.833 307.874L335.737 266.644C348.763 246.683 349.581 221.382 337.874 200.621L320.566 169.934L282.887 230.873H282.882Z" fill="#3D3B3B"/>
<path d="M292.283 121.254C290.181 119.884 288.197 118.592 286.156 117.256C288.149 114.203 290.124 111.176 292.139 108.083C288.654 105.238 284.824 103.003 281.103 100.489C282.073 99.4361 283 98.4269 283.927 97.4179C284.719 96.5566 285.525 95.7041 286.286 94.8169C286.595 94.4602 286.834 94.4819 287.191 94.7167C288.444 95.5519 289.697 96.3739 290.974 97.1786C292.418 98.0877 293.11 97.9442 294.024 96.548C299.443 88.2533 304.86 79.9543 310.269 71.6508C311.354 69.9849 311.049 68.2973 309.456 67.0794C308.773 66.5575 308.041 66.0964 307.327 65.618C306.614 65.1438 305.896 64.6827 305.135 64.1869C306.4 62.247 307.645 60.3418 308.917 58.3932C312.554 60.7681 316.167 63.1169 319.839 65.5135C321.894 62.3644 323.926 59.2545 325.985 56.0923C328.06 57.4451 330.071 58.7543 332.134 60.1027C330.133 63.1691 328.143 66.2182 326.149 69.2716C327.626 70.2328 329.048 71.1593 330.537 72.1337C332.547 69.0498 334.524 66.0225 336.525 62.956C338.396 64.1783 340.203 65.3527 342.061 66.5661C340.029 69.6805 337.992 72.7992 335.959 75.9177C337.265 77.1052 338.579 78.1927 339.767 79.4061C341.892 81.5679 343.701 83.9515 344.433 86.9788C345.064 89.593 344.516 92.0374 343.319 94.3688C342.448 96.0608 341.347 97.5788 339.837 98.775C337.974 100.249 335.833 100.854 333.492 100.837C333.14 100.837 332.792 100.806 332.543 100.798C333.405 102.12 334.41 103.399 335.137 104.821C336.769 107.996 336.633 111.228 334.959 114.359C333.423 117.23 331.411 119.705 328.626 121.48C325.588 123.415 322.303 123.746 318.843 123.011C315.336 122.267 312.124 120.823 309.056 119.009C308.86 118.892 308.66 118.779 308.455 118.67C308.39 118.635 308.311 118.627 308.181 118.587C306.205 121.615 304.224 124.651 302.219 127.726C300.36 126.512 298.554 125.338 296.678 124.115C298.623 121.136 300.569 118.157 302.559 115.103C301.074 114.138 299.655 113.211 298.163 112.237C296.231 115.199 294.272 118.2 292.274 121.259L292.283 121.254ZM310.809 92.9073C308.089 97.0786 305.405 101.189 302.732 105.286C304.716 106.582 306.61 107.935 308.615 109.092C311.097 110.519 313.695 111.698 316.615 111.967C320.614 112.333 323.752 109.123 323.286 105.134C323.047 103.081 321.833 101.576 320.531 100.136C317.79 97.109 314.278 95.1039 310.814 92.9116L310.809 92.9073ZM314.478 87.2702C314.892 87.54 315.257 87.7705 315.614 88.014C318.369 89.8714 321.176 91.6546 324.452 92.4245C326.298 92.8552 328.169 92.8552 329.775 91.5894C332.378 89.5364 332.852 86.0654 330.964 83.3252C329.714 81.5114 328.06 80.1151 326.302 78.8537C324.879 77.8316 323.374 76.9226 321.868 75.9439C319.379 79.7585 316.958 83.4687 314.473 87.2745L314.478 87.2702Z" fill="#3D3B3B"/>
<path d="M290.106 119.148C288.005 117.778 286.02 116.487 283.98 115.151C285.972 112.098 287.949 109.071 289.964 105.978C286.477 103.133 282.647 100.898 278.927 98.3835C279.897 97.3309 280.824 96.3218 281.751 95.3128C282.543 94.4515 283.348 93.599 284.109 92.7116C284.419 92.355 284.659 92.3768 285.015 92.6116C286.268 93.4468 287.522 94.2688 288.797 95.0735C290.242 95.9826 290.934 95.8391 291.848 94.4428C297.266 86.1481 302.684 77.849 308.094 69.5457C309.177 67.8798 308.872 66.1922 307.279 64.9743C306.597 64.4523 305.865 63.9912 305.152 63.5127C304.438 63.0387 303.719 62.5776 302.958 62.0818C304.224 60.1418 305.469 58.2367 306.741 56.2881C310.379 58.663 313.991 61.0118 317.664 63.4084C319.718 60.2593 321.75 57.1494 323.808 53.9872C325.884 55.3398 327.894 56.6491 329.957 57.9974C327.956 61.064 325.967 64.113 323.974 67.1665C325.449 68.1277 326.873 69.0542 328.361 70.0242C330.371 66.9402 332.347 63.9129 334.35 60.8465C336.221 62.0687 338.027 63.2431 339.885 64.4567C337.852 67.571 335.815 70.6896 333.784 73.8083C335.088 74.9958 336.403 76.0831 337.592 77.2967C339.715 79.4584 341.526 81.842 342.256 84.8694C342.888 87.4835 342.339 89.9279 341.143 92.2593C340.272 93.9512 339.171 95.4693 337.661 96.6654C335.799 98.14 333.658 98.7446 331.315 98.7272C330.964 98.7272 330.615 98.6968 330.366 98.688C331.229 100.01 332.234 101.289 332.961 102.711C334.593 105.887 334.458 109.118 332.782 112.25C331.246 115.121 329.235 117.596 326.45 119.37C323.412 121.305 320.127 121.636 316.667 120.901C313.16 120.158 309.948 118.714 306.88 116.9C306.683 116.782 306.483 116.669 306.279 116.561C306.213 116.526 306.135 116.517 306.004 116.478C304.029 119.505 302.049 122.541 300.042 125.616C298.184 124.403 296.378 123.228 294.502 122.007C296.448 119.027 298.393 116.047 300.382 112.994C298.898 112.028 297.479 111.102 295.987 110.127C294.055 113.09 292.096 116.091 290.098 119.148H290.106ZM308.633 90.8065C305.913 94.9778 303.228 99.0882 300.555 103.185C302.54 104.482 304.433 105.834 306.44 106.991C308.92 108.418 311.519 109.597 314.438 109.867C318.438 110.232 321.576 107.022 321.111 103.033C320.871 100.98 319.657 99.4753 318.356 98.0356C315.614 95.0083 312.102 93.0031 308.638 90.8109L308.633 90.8065ZM312.302 85.1651C312.715 85.4347 313.081 85.6653 313.438 85.9089C316.193 87.7661 319 89.5495 322.277 90.3193C324.122 90.75 325.993 90.75 327.599 89.4842C330.202 87.4312 330.676 83.9603 328.787 81.22C327.538 79.4062 325.884 78.01 324.126 76.7486C322.704 75.7265 321.197 74.8174 319.692 73.8388C317.202 77.6534 314.783 81.3636 312.298 85.1694L312.302 85.1651Z" fill="#FFC212"/>
<path d="M300.26 126.626L293.501 122.219L299.381 113.207L296.208 111.141L290.319 120.162L282.969 115.369L288.993 106.139C286.708 104.329 284.236 102.729 281.842 101.176C280.754 100.471 279.622 99.7407 278.521 98.9926L277.82 98.5184L279.161 97.0614C279.857 96.3045 280.536 95.5651 281.216 94.8256L281.815 94.1732C282.395 93.5425 282.996 92.8944 283.561 92.2377C283.926 91.8114 284.549 91.4243 285.423 92.0071C286.446 92.69 287.799 93.5817 289.188 94.4559C290.298 95.1518 290.546 95.104 291.238 94.0428C296.656 85.7481 302.074 77.4491 307.484 69.1456C308.355 67.8103 308.123 66.5358 306.84 65.5529C306.326 65.1614 305.769 64.7916 305.225 64.435L304.747 64.1175C304.255 63.7913 303.758 63.4694 303.249 63.1388L301.949 62.2907L306.527 55.2747L317.45 62.395L323.595 52.9739L330.967 57.7802L324.983 66.9491L328.147 69.0107L334.136 59.8331L340.894 64.2393L334.735 73.678C334.988 73.9041 335.24 74.126 335.493 74.3478C336.372 75.1263 337.277 75.9266 338.118 76.7791C339.936 78.6278 342.13 81.1983 342.974 84.6911C343.592 87.2573 343.209 89.8411 341.798 92.5856C340.79 94.5517 339.588 96.0697 338.121 97.2267C336.346 98.6359 334.209 99.3797 331.772 99.4406C331.785 99.458 331.794 99.4711 331.806 99.4884C332.438 100.402 333.091 101.346 333.617 102.364C335.333 105.708 335.271 109.145 333.435 112.581C331.69 115.843 329.535 118.261 326.85 119.971C323.821 121.898 320.444 122.432 316.522 121.602C313.272 120.91 309.995 119.575 306.513 117.513C306.439 117.47 306.361 117.422 306.283 117.378L300.255 126.613L300.26 126.626ZM295.516 121.793L299.833 124.607L305.695 115.625L306.308 115.804C306.396 115.825 306.505 115.852 306.626 115.917C306.84 116.03 307.048 116.147 307.257 116.269C310.6 118.248 313.729 119.531 316.823 120.188C320.352 120.936 323.377 120.471 326.062 118.757C328.53 117.183 330.518 114.943 332.142 111.907C333.74 108.918 333.8 105.939 332.311 103.046C331.833 102.111 331.207 101.206 330.601 100.337C330.314 99.9234 330.026 99.5101 329.757 99.0926L328.978 97.9008L330.649 97.9791C330.849 97.9921 331.084 98.0052 331.324 98.0052C331.359 98.0052 331.394 98.0052 331.432 98.0052C333.705 98.0052 335.598 97.3833 337.212 96.1001C338.509 95.0736 339.584 93.7078 340.498 91.9332C341.742 89.5149 342.086 87.2617 341.551 85.0477C340.793 81.8987 338.757 79.5281 337.073 77.8144C336.272 77.0011 335.424 76.2485 334.523 75.4569C334.114 75.0958 333.7 74.7306 333.291 74.3564L332.829 73.9388L338.874 64.6786L334.558 61.8644L328.569 71.0421L322.96 67.384L328.943 58.2151L324.017 55.0051L317.872 64.4263L306.949 57.306L303.967 61.8775L304.042 61.9253C304.555 62.2603 305.06 62.582 305.556 62.917L306.025 63.2301C306.588 63.5999 307.171 63.9826 307.724 64.4045C309.616 65.8487 309.995 67.9757 308.707 69.9503C303.297 78.2537 297.879 86.5527 292.46 94.8475C291.329 96.5829 290.193 96.8178 288.409 95.6956C287.012 94.817 285.655 93.921 284.627 93.2337C284.057 93.8905 283.461 94.5386 282.887 95.1649L282.29 95.813C281.612 96.5525 280.928 97.2962 280.231 98.053L280.04 98.2575C280.906 98.8317 281.781 99.4014 282.633 99.9538C285.241 101.641 287.94 103.39 290.424 105.421L290.933 105.835L284.988 114.943L289.893 118.139L295.781 109.118L301.399 112.781L295.52 121.793H295.516ZM315.047 110.619C314.822 110.619 314.595 110.61 314.368 110.589C311.062 110.284 308.197 108.844 306.073 107.618C304.664 106.809 303.293 105.887 301.97 104.995C301.369 104.595 300.768 104.19 300.159 103.79L299.546 103.39L308.414 89.7975L309.024 90.1847C309.464 90.463 309.903 90.7371 310.343 91.011C313.337 92.8813 316.436 94.817 318.895 97.5355C320.235 99.0187 321.567 100.654 321.832 102.938C322.08 105.06 321.402 107.118 319.969 108.583C318.69 109.893 316.928 110.615 315.047 110.615V110.619ZM301.565 102.973C301.974 103.242 302.379 103.516 302.783 103.786C304.151 104.704 305.439 105.569 306.805 106.352C308.798 107.5 311.479 108.853 314.504 109.131C316.188 109.292 317.802 108.714 318.925 107.566C320.047 106.413 320.579 104.791 320.383 103.107C320.165 101.25 319.042 99.8755 317.811 98.5184C315.487 95.9522 312.61 94.1515 309.568 92.2508C309.328 92.1028 309.095 91.9506 308.855 91.8027L301.565 102.973ZM324.309 91.3025C323.625 91.3025 322.894 91.2111 322.115 91.0284C318.746 90.2412 315.896 88.4448 313.032 86.5135C312.793 86.3527 312.554 86.1961 312.292 86.0308L311.292 85.3784L319.483 72.8253L320.095 73.2255C320.557 73.5257 321.014 73.8172 321.476 74.1085C322.498 74.761 323.556 75.4308 324.561 76.1529C326.062 77.2316 327.973 78.7365 329.396 80.8026C331.515 83.8778 330.954 87.7662 328.059 90.0541C327.003 90.8892 325.766 91.3025 324.312 91.3025H324.309ZM313.31 84.952C313.494 85.0695 313.668 85.1869 313.847 85.3044C316.592 87.153 319.317 88.8754 322.446 89.6061C324.456 90.0759 325.953 89.854 327.15 88.9058C329.422 87.1138 329.862 84.0517 328.19 81.629C326.894 79.7456 325.109 78.3451 323.703 77.3359C322.733 76.64 321.741 76.0049 320.688 75.3351C320.431 75.1698 320.17 75.0045 319.908 74.8393L313.31 84.9477V84.952Z" fill="#3D3B3B"/>
<path d="M134.219 353.514C131.62 355.293 128.597 356.241 125.524 356.319C124.832 361.416 122.412 366.163 118.608 369.725C114.008 374.044 107.815 376.235 101.518 375.775C95.2209 375.318 89.411 372.247 85.4855 367.306C82.8178 363.94 81.1858 359.92 80.7331 355.728C69.1526 359.92 56.0793 357.093 47.2534 348.268C40.1554 341.169 36.9392 331.327 38.1361 321.726C35.7208 322.775 33.0617 323.267 30.3765 323.131C25.5763 322.888 21.0938 320.652 18.0039 316.964C14.9226 313.276 13.5126 308.473 14.1219 303.706C14.3526 301.94 14.8443 300.244 15.571 298.665C13.0774 297.113 10.5837 295.081 8.32071 292.424C7.12827 291.019 -2.42432 279.418 1.4794 265.004C3.84688 256.239 10.8318 247.749 19.8621 244.621C22.6561 243.656 25.6503 243.199 28.7576 243.413C29.3886 243.456 30.0109 243.525 30.6115 243.617C31.3209 241.238 32.3741 238.936 33.7753 236.805C38.6714 229.329 47.075 224.887 56.0184 225.057C64.966 225.223 73.1955 229.976 77.8086 237.636C80.0152 241.294 81.2424 245.374 81.4861 249.507C84.7545 246.427 89.411 245.192 93.837 246.322C98.8069 247.597 102.584 251.625 103.546 256.661C104.042 259.271 103.733 261.898 102.741 264.246C110.366 259.314 119.705 257.479 128.779 259.323C140.147 261.628 149.634 269.405 154.125 280.088C158.62 290.776 157.532 302.985 151.235 312.715C147.023 319.222 140.839 324.054 133.731 326.625C134.006 326.794 134.276 326.977 134.541 327.164C134.893 327.421 135.241 327.691 135.577 327.977C139.394 331.231 141.47 336.072 141.203 341.078C140.934 346.08 138.349 350.677 134.215 353.505L134.219 353.514Z" fill="#E0DFFE"/>
<g style="mix-blend-mode:multiply">
<path d="M134.219 353.514C131.62 355.293 128.597 356.241 125.524 356.319C124.832 361.416 122.412 366.163 118.608 369.724C114.008 374.044 107.815 376.235 101.518 375.775C95.2209 375.318 89.411 372.247 85.4855 367.306C82.8178 363.94 81.1858 359.92 80.7331 355.728C69.1526 359.92 56.0792 357.093 47.2534 348.267C40.1554 341.169 36.9392 331.327 38.1361 321.726C35.7208 322.775 33.0617 323.267 30.3765 323.131C25.5763 322.888 21.0938 320.652 18.0039 316.964C14.9226 313.275 13.5126 308.473 14.1219 303.706C14.3526 301.94 14.8443 300.244 15.571 298.665C13.0774 297.113 10.5837 295.081 8.32071 292.424C7.12827 291.019 -2.42432 279.418 1.4794 265.004C3.84688 256.239 10.8318 247.749 19.8621 244.621C16.3936 250.25 13.9218 255.617 15.6059 262.881C17.5991 271.463 25.115 278.483 33.8146 279.888C33.1836 281.845 30.4505 290.971 35.1984 300.692C35.7817 301.884 41.3174 312.741 54.0991 315.503C64.0868 317.656 71.9291 313.458 73.8527 312.349C71.9771 322.065 75.2714 331.844 82.5479 337.463C90.4946 343.605 103.873 345.31 111.058 337.829C116.445 332.218 115.806 324.097 115.61 322.214C117.172 323.036 124.754 326.894 134.546 327.164C134.898 327.421 135.246 327.69 135.581 327.977C139.398 331.231 141.473 336.072 141.208 341.078C140.938 346.08 138.354 350.677 134.219 353.505V353.514Z" fill="#AEAECC"/>
</g>
<path d="M103.146 376.379C102.589 376.379 102.032 376.358 101.475 376.318C95.047 375.849 89.0631 372.692 85.0505 367.646C82.4741 364.397 80.8291 360.547 80.2677 356.468C68.6218 360.403 55.5789 357.372 46.862 348.651C39.938 341.727 36.5521 332.27 37.4877 322.575C35.2204 323.419 32.7703 323.801 30.3462 323.676C25.4067 323.423 20.7545 321.105 17.5818 317.312C14.4093 313.515 12.9513 308.531 13.5737 303.632C13.787 301.98 14.2265 300.383 14.8749 298.87C12.2594 297.186 9.91369 295.138 7.89873 292.776C6.06219 290.61 -2.90723 279.092 0.944269 264.855C3.48582 255.443 11.0147 247.1 19.6751 244.1C22.6606 243.069 25.7244 242.655 28.7882 242.86C29.2539 242.89 29.7326 242.938 30.22 243.004C30.9511 240.699 31.9913 238.511 33.3099 236.5C38.3407 228.816 46.8358 224.347 56.0228 224.504C65.2142 224.675 73.5308 229.476 78.2745 237.349C80.2938 240.694 81.5515 244.482 81.9432 248.375C85.3073 245.674 89.7245 244.704 93.9721 245.788C99.1205 247.105 103.089 251.332 104.082 256.557C104.486 258.702 104.382 260.89 103.777 262.964C111.362 258.505 120.219 257.022 128.888 258.788C140.438 261.133 150.065 269.014 154.63 279.874C159.195 290.731 158.098 303.119 151.697 313.014C147.692 319.2 141.761 324.05 134.92 326.764C135.276 327.025 135.62 327.295 135.933 327.563C139.851 330.905 142.026 335.967 141.753 341.113C141.478 346.255 138.776 351.061 134.524 353.966C131.996 355.697 129.057 356.689 125.994 356.85C125.201 361.918 122.721 366.619 118.979 370.125C114.692 374.148 108.995 376.384 103.146 376.384V376.379ZM81.2033 354.975L81.2773 355.672C81.7212 359.794 83.3228 363.7 85.9121 366.967C89.7332 371.769 95.4343 374.784 101.558 375.227C107.681 375.674 113.76 373.521 118.23 369.324C121.903 365.883 124.3 361.239 124.976 356.245L125.037 355.784L125.502 355.771C128.518 355.697 131.421 354.758 133.902 353.062C137.875 350.348 140.399 345.858 140.655 341.056C140.909 336.25 138.876 331.517 135.22 328.399C134.907 328.134 134.572 327.868 134.215 327.611C133.94 327.416 133.683 327.247 133.44 327.095L132.474 326.499L133.541 326.112C140.581 323.566 146.7 318.699 150.77 312.418C156.976 302.832 158.037 290.822 153.616 280.301C149.19 269.775 139.864 262.133 128.666 259.862C119.766 258.053 110.666 259.771 103.037 264.708L101.544 265.673L102.236 264.034C103.207 261.732 103.472 259.218 103.007 256.761C102.089 251.955 98.4372 248.062 93.7022 246.849C89.4634 245.765 85.0331 246.905 81.8605 249.897L81.0076 250.707L80.9379 249.532C80.6985 245.435 79.4539 241.42 77.3389 237.915C72.791 230.368 64.8181 225.766 56.0054 225.6C47.184 225.435 39.0545 229.733 34.2325 237.101C32.8834 239.158 31.8433 241.399 31.1339 243.769L30.999 244.226L30.529 244.156C29.911 244.065 29.3017 243.995 28.7186 243.956C25.8027 243.76 22.8783 244.156 20.0364 245.139C11.7023 248.027 4.45632 256.065 2.00615 265.143C-1.70173 278.848 6.96305 289.975 8.7343 292.067C10.7754 294.463 13.1733 296.525 15.8584 298.195L16.2675 298.452L16.063 298.892C15.3536 300.431 14.8837 302.071 14.6617 303.771C14.0742 308.369 15.445 313.049 18.4218 316.607C21.4029 320.165 25.768 322.345 30.4028 322.58C32.9661 322.706 35.5686 322.241 37.9142 321.218L38.7934 320.835L38.6759 321.787C37.4703 331.466 40.7387 340.974 47.6365 347.872C56.2187 356.454 69.131 359.333 80.5418 355.205L81.199 354.967L81.2033 354.975Z" fill="#3D3B3B"/>
<path d="M313.572 377.006C318.268 383.613 318.286 392.682 313.181 399.359C307.532 406.748 297.388 408.867 289.298 404.534C280.854 412.542 268.764 415.743 257.288 412.725C246.278 409.828 237.609 401.659 233.914 391.177C230.267 392.49 226.232 392.416 222.603 390.915C218.361 389.162 215.101 385.64 213.677 381.281C212.255 376.919 212.816 372.147 215.21 368.237C215.901 367.101 216.732 366.075 217.669 365.166C213.242 362.113 210.074 357.497 208.851 352.196C207.642 346.933 208.438 341.457 211.018 336.806C211.506 335.924 212.058 335.072 212.677 334.258C216.541 329.134 222.477 325.984 228.888 325.658C232.37 325.481 235.786 326.146 238.893 327.538C247.248 320.609 258.894 318.264 269.666 322.148C281.73 326.499 289.649 337.576 290.381 349.851C296.022 347.437 302.562 347.933 307.794 351.264C308.751 351.878 309.668 352.587 310.526 353.388C317.102 359.538 318.338 369.459 313.572 377.01V377.006Z" fill="#E0DFFE"/>
<g style="mix-blend-mode:multiply">
<path d="M313.572 377.006C318.268 383.613 318.286 392.681 313.181 399.359C307.532 406.748 297.388 408.867 289.298 404.534C280.854 412.542 268.764 415.743 257.288 412.725C246.278 409.828 237.609 401.659 233.914 391.177C230.267 392.49 226.232 392.416 222.603 390.915C218.361 389.162 215.101 385.64 213.677 381.281C212.255 376.919 212.816 372.147 215.21 368.237C215.901 367.101 216.732 366.075 217.669 365.166C213.242 362.113 210.074 357.497 208.851 352.196C207.642 346.933 208.438 341.457 211.018 336.806C211.184 337.881 211.301 338.912 211.384 339.878C212.115 348.315 218.8 356.302 228.052 355.519C226.459 363.7 229.954 372.656 236.665 377.602C243.375 382.547 252.972 383.231 260.318 379.289C266.837 389.515 282.447 392.447 292.235 385.278C295.725 382.721 298.593 378.315 297.179 374.226C303.472 375.649 309.935 370.203 310.988 363.839C311.714 359.442 310.33 354.988 307.789 351.265C308.746 351.878 309.665 352.587 310.522 353.388C317.097 359.538 318.334 369.459 313.569 377.01L313.572 377.006Z" fill="#AEAECC"/>
</g>
<path d="M265.84 414.322C262.938 414.322 260.017 413.956 257.162 413.203C246.27 410.337 237.501 402.356 233.613 391.804C229.946 393.004 225.989 392.851 222.412 391.372C218.03 389.563 214.674 385.94 213.207 381.434C211.737 376.927 212.311 372.021 214.788 367.98C215.387 366.997 216.098 366.075 216.907 365.231C212.594 362.087 209.574 357.52 208.369 352.309C207.137 346.955 207.924 341.366 210.587 336.568C211.084 335.663 211.659 334.784 212.285 333.958C216.245 328.708 222.29 325.503 228.861 325.167C232.252 324.998 235.681 325.615 238.81 326.964C247.47 319.922 259.325 317.899 269.83 321.683C281.638 325.941 289.815 336.667 290.821 349.133C296.504 346.937 302.898 347.559 308.054 350.843C309.042 351.473 309.986 352.209 310.862 353.017C317.498 359.225 318.861 369.251 314.16 376.985C318.909 383.896 318.682 392.964 313.572 399.654C307.854 407.139 297.732 409.415 289.381 405.13C282.97 411.085 274.466 414.317 265.84 414.317V414.322ZM234.219 390.551L234.385 391.021C238.075 401.49 246.683 409.428 257.419 412.255C268.539 415.182 280.629 412.089 288.962 404.186L289.219 403.943L289.533 404.112C297.514 408.384 307.292 406.265 312.789 399.071C317.703 392.643 317.859 383.891 313.172 377.301L312.981 377.031L313.16 376.753C317.811 369.385 316.563 359.712 310.196 353.753C309.369 352.983 308.473 352.287 307.532 351.687C302.458 348.454 296.116 347.941 290.576 350.313L289.932 350.586L289.889 349.886C289.154 337.525 281.155 326.82 269.501 322.618C259.225 318.912 247.619 320.948 239.211 327.925L238.976 328.121L238.697 327.995C235.633 326.625 232.256 325.984 228.918 326.16C222.638 326.481 216.863 329.543 213.077 334.562C212.477 335.353 211.932 336.194 211.458 337.055C208.912 341.639 208.159 346.981 209.339 352.095C210.531 357.254 213.594 361.756 217.955 364.771L218.447 365.11L218.017 365.527C217.094 366.423 216.293 367.427 215.631 368.503C213.308 372.3 212.768 376.906 214.147 381.137C215.527 385.371 218.677 388.772 222.795 390.472C226.294 391.921 230.184 392.012 233.749 390.725L234.214 390.554L234.219 390.551Z" fill="#3D3B3B"/>
<path d="M72.5825 273.281L70.0932 258.179L67.6038 273.281L57.0938 275.525L67.6038 278.213L70.0932 293.328L72.5825 278.218L83.3362 275.647L72.5825 273.281Z" fill="#F7941D"/>
<path d="M89.2895 293.116L87.9013 284.69L86.5085 293.116L80.6465 294.367L86.5085 295.868L87.8968 304.297L89.2895 295.868L95.2865 294.437L89.2895 293.116Z" fill="#F7941D"/>
<path d="M197.319 293.116L195.93 284.69L194.542 293.116L188.68 294.367L194.542 295.868L195.93 304.297L197.319 295.868L203.316 294.437L197.319 293.116Z" fill="#F7941D"/>
<path d="M262.437 344.332L260.5 332.588L258.563 344.332L250.391 346.076L258.563 348.168L260.5 359.92L262.437 348.173L270.797 346.172L262.437 344.332Z" fill="#F7941D"/>
<path d="M382.756 229.12L380.819 217.371L378.887 229.12L370.714 230.863L378.883 232.956L380.819 244.709L382.756 232.956L391.12 230.959L382.756 229.12Z" fill="#FFC212"/>
<path d="M197.575 51.7601L194.606 33.7397L191.634 51.7558L179.096 54.4352L191.634 57.6451L194.606 75.6742L197.575 57.6496L210.405 54.583L197.575 51.7601Z" fill="#FFC212"/>
</g>
</g>
<defs>
<clipPath id="clip0_134_103">
<rect width="397" height="416" fill="white"/>
</clipPath>
</defs>
</svg>
